<svg xmlns="http://www.w3.org/2000/svg" xmlns:xlink="http://www.w3.org/1999/xlink" width="940" zoomAndPan="magnify" viewBox="0 0 705 591.000005" height="788" preserveAspectRatio="xMidYMid meet" version="1.0"><defs><clipPath id="9cd82340fb"><path d="M 0.59375 0 L 704.402344 0 L 704.402344 590 L 0.59375 590 Z M 0.59375 0 " clip-rule="nonzero"/></clipPath></defs><g clip-path="url(#9cd82340fb)"><path fill="#ffffff" d="M 0.59375 0 L 704.40625 0 L 704.40625 590 L 0.59375 590 Z M 0.59375 0 " fill-opacity="1" fill-rule="nonzero"/><path fill="#ffffff" d="M 0.59375 0 L 704.40625 0 L 704.40625 590 L 0.59375 590 Z M 0.59375 0 " fill-opacity="1" fill-rule="nonzero"/></g><path fill="#000000" d="M 330.261719 227.378906 C 324.003906 228.6875 316.714844 234.347656 314.140625 239.894531 C 310.242188 248.300781 311.886719 257.105469 318.609375 263.808594 C 324.707031 269.886719 328.257812 270.773438 346.429688 270.773438 L 359.316406 270.773438 L 359.316406 259.691406 L 347.4375 259.6875 C 334.285156 259.679688 331.917969 259.339844 328.675781 256.988281 C 325.769531 254.878906 324.621094 252.308594 324.820312 248.378906 C 325.042969 244.078125 326.453125 241.90625 330.40625 239.789062 C 332.855469 238.472656 333.714844 238.257812 336.484375 238.253906 C 339.1875 238.253906 340.117188 238.472656 342.191406 239.609375 C 343.554688 240.355469 345.1875 241.648438 345.820312 242.476562 L 346.972656 243.992188 L 353.375 243.992188 C 360.816406 243.992188 360.683594 244.109375 358.375 239.484375 C 355.933594 234.589844 350.066406 229.859375 344.140625 228 C 341.503906 227.175781 333.042969 226.792969 330.261719 227.378906 M 347.785156 227.128906 C 347.785156 227.25 348.863281 227.898438 350.179688 228.566406 C 352.992188 229.992188 357.417969 234.070312 358.65625 236.375 C 359.132812 237.261719 359.839844 238.003906 360.226562 238.019531 C 360.613281 238.035156 362.589844 238.03125 364.617188 238.007812 C 370.710938 237.933594 377.675781 238.78125 379.3125 239.796875 C 385.1875 243.4375 386.421875 250.40625 382.089844 255.472656 C 379.457031 258.554688 376.84375 259.339844 368.421875 259.59375 L 361.160156 259.8125 L 361.160156 270.773438 L 369.132812 270.773438 C 374.707031 270.773438 377.902344 270.566406 379.742188 270.085938 C 387.683594 268.015625 393.773438 262.355469 396.296875 254.699219 C 397.835938 250.023438 397.117188 243.628906 394.511719 238.835938 C 392.875 235.828125 388.25 231.480469 384.863281 229.769531 C 380.011719 227.316406 376.648438 226.90625 361.410156 226.90625 C 353.917969 226.90625 347.785156 227.003906 347.785156 227.128906 M 333.328125 240.96875 C 331.046875 241.785156 329.429688 243.292969 328.363281 245.605469 C 327.269531 247.988281 327.277344 249.605469 328.394531 251.800781 C 329.679688 254.320312 331.710938 255.851562 334.519531 256.417969 C 340.492188 257.621094 345.453125 254.003906 345.472656 248.433594 C 345.492188 242.6875 339.253906 238.855469 333.328125 240.96875 M 370.800781 240.730469 C 365.761719 241.710938 362.527344 246.429688 363.855469 250.863281 C 364.460938 252.890625 366.804688 255.425781 368.871094 256.296875 C 373.078125 258.066406 378.773438 256.117188 380.804688 252.210938 C 381.71875 250.449219 381.617188 246.828125 380.597656 244.90625 C 379.007812 241.921875 374.515625 240.003906 370.800781 240.726562 M 332.296875 243.054688 C 330.867188 243.632812 328.875 246.214844 328.875 247.488281 C 328.875 248.105469 328.992188 248.609375 329.128906 248.609375 C 329.582031 248.609375 332.597656 245.183594 333.296875 243.875 C 334.007812 242.539062 333.863281 242.417969 332.296875 243.054688 M 257.066406 283.191406 C 254.121094 284.574219 251.195312 287.761719 250.246094 290.621094 C 248.644531 295.453125 249.960938 300.308594 253.851562 303.898438 C 256.675781 306.507812 258.664062 306.988281 266.617188 307.007812 L 273.304688 307.023438 L 273.304688 300.558594 L 266.53125 300.328125 C 260.578125 300.125 259.605469 299.980469 258.460938 299.125 C 253.996094 295.78125 256.425781 289.015625 262.09375 289.015625 C 263.910156 289.015625 264.507812 289.253906 265.804688 290.515625 C 267.257812 291.925781 267.550781 292.015625 270.671875 292.015625 C 272.5 292.015625 273.996094 291.90625 273.996094 291.769531 C 273.996094 290.847656 272.421875 288.117188 270.957031 286.492188 C 268.511719 283.777344 266.113281 282.671875 262.234375 282.457031 C 259.714844 282.320312 258.578125 282.480469 257.066406 283.191406 M 283.488281 283.21875 C 275.941406 286.269531 273.378906 295.804688 278.351562 302.332031 C 281.21875 306.097656 287.90625 307.824219 292.21875 305.914062 C 295.652344 304.394531 297.324219 302.890625 298.691406 300.09375 C 302.523438 292.246094 297.375 283.199219 288.691406 282.53125 C 286.4375 282.355469 285.226562 282.515625 283.488281 283.21875 M 310.972656 283.167969 C 302.890625 286.058594 300.285156 297.027344 306.261719 303.011719 C 308.429688 305.183594 310.972656 306.332031 314.308594 306.644531 C 316.839844 306.878906 317.585938 306.75 319.925781 305.679688 C 321.410156 304.996094 323.015625 304.085938 323.492188 303.65625 C 325.019531 302.273438 326.5625 299.160156 327.0625 296.453125 C 328.695312 287.605469 319.59375 280.089844 310.972656 283.167969 M 331.324219 282.785156 C 329.886719 283.367188 329.722656 284.867188 329.886719 295.863281 C 330.019531 304.761719 330.097656 305.53125 330.925781 306.136719 C 332.171875 307.050781 334.578125 306.960938 335.476562 305.964844 C 336.054688 305.328125 336.253906 303.945312 336.355469 299.875 L 336.484375 294.609375 L 340.476562 299.664062 C 342.667969 302.441406 344.90625 305.183594 345.449219 305.753906 C 346.59375 306.957031 348.976562 307.144531 350.347656 306.136719 C 351.191406 305.515625 351.242188 304.839844 351.238281 294.777344 C 351.234375 284.105469 351.234375 284.074219 350.152344 283.199219 C 348.75 282.0625 347.101562 282.078125 345.941406 283.242188 C 345.125 284.058594 345.019531 284.78125 345.019531 289.527344 L 345.019531 294.886719 L 340.519531 289.101562 C 335.296875 282.378906 334.199219 281.625 331.324219 282.785156 M 380.839844 282.996094 C 379.632812 284.203125 379.542969 285.195312 379.695312 295.65625 C 379.828125 304.761719 379.902344 305.53125 380.734375 306.136719 C 381.40625 306.628906 383.25 306.792969 388.152344 306.792969 C 395.335938 306.792969 398.011719 306.253906 400.578125 304.296875 C 404.933594 300.96875 405.296875 289.667969 401.179688 285.675781 C 398.5 283.082031 396.757812 282.621094 388.792969 282.414062 C 382.535156 282.25 381.511719 282.324219 380.839844 282.996094 M 415.960938 282.742188 C 411.675781 284.132812 408.164062 287.972656 407.28125 292.238281 C 406.671875 295.171875 407.003906 297.453125 408.472656 300.382812 C 410.527344 304.488281 413.964844 306.441406 419.269531 306.515625 C 422.265625 306.554688 423.046875 306.386719 425.105469 305.242188 C 430.601562 302.191406 432.851562 295.175781 430.160156 289.476562 C 428.910156 286.824219 427.246094 285.136719 424.464844 283.703125 C 422.324219 282.597656 417.933594 282.101562 415.960938 282.742188 M 442.933594 282.929688 C 440.183594 283.945312 437.519531 286.242188 436.101562 288.8125 C 434.90625 290.984375 434.71875 291.792969 434.730469 294.785156 C 434.742188 298.71875 435.648438 300.933594 438.253906 303.40625 C 440.839844 305.859375 443.027344 306.671875 447.976562 307.007812 L 452.476562 307.3125 L 452.542969 304.511719 C 452.582031 302.972656 452.632812 301.453125 452.660156 301.136719 C 452.691406 300.730469 451.632812 300.519531 449.070312 300.425781 C 443.480469 300.21875 441.175781 298.589844 441.175781 294.855469 C 441.175781 290.503906 443.660156 288.792969 449.992188 288.785156 L 453.273438 288.785156 L 454.523438 286.972656 C 455.214844 285.976562 456.589844 284.625 457.585938 283.964844 C 458.578125 283.304688 459.390625 282.667969 459.390625 282.542969 C 459.390625 282.054688 444.347656 282.410156 442.933594 282.929688 M 361.621094 288.203125 C 359.972656 291.164062 357.328125 295.777344 355.75 298.457031 C 353.617188 302.074219 352.871094 303.777344 352.867188 305.0625 L 352.859375 306.792969 L 377.300781 306.792969 L 377.300781 305.351562 C 377.300781 304.476562 376.414062 302.34375 375.042969 299.925781 C 367.347656 286.335938 365.410156 283.046875 365.039062 282.941406 C 364.808594 282.875 363.269531 285.242188 361.621094 288.203125 M 285.292969 289.222656 C 284.785156 289.433594 283.851562 290.164062 283.21875 290.847656 C 282.28125 291.859375 282.066406 292.5625 282.066406 294.628906 C 282.066406 296.96875 282.199219 297.289062 283.789062 298.746094 C 285.300781 300.136719 285.808594 300.328125 287.9375 300.3125 C 290.546875 300.296875 291.628906 299.734375 292.980469 297.679688 C 294.617188 295.195312 293.664062 291.089844 291.097656 289.570312 C 289.699219 288.746094 286.859375 288.574219 285.292969 289.222656 M 312.503906 289.222656 C 308.496094 290.882812 308.015625 296.511719 311.636719 299.363281 C 313.105469 300.523438 317.078125 300.675781 318.460938 299.628906 C 321.9375 296.996094 321.835938 291.324219 318.285156 289.484375 C 316.832031 288.730469 314 288.605469 312.503906 289.222656 M 386.0625 294.511719 L 386.0625 300.328125 L 390.480469 300.328125 C 394.722656 300.328125 394.949219 300.277344 396.210938 299.011719 C 397.792969 297.425781 398.363281 294.871094 397.65625 292.507812 C 396.765625 289.535156 395.808594 289.035156 390.628906 288.855469 L 386.0625 288.699219 Z M 416.1875 289.460938 C 412.386719 291.113281 412.351562 297.605469 416.128906 299.703125 C 416.714844 300.027344 418.171875 300.304688 419.367188 300.3125 C 421.152344 300.324219 421.832031 300.074219 423.160156 298.90625 C 425.921875 296.476562 425.941406 293.066406 423.207031 290.328125 C 421.921875 289.039062 421.332031 288.789062 419.660156 288.800781 C 418.558594 288.8125 416.992188 289.109375 416.1875 289.460938 M 259.75 290.351562 C 255.621094 292.640625 257.285156 298.941406 262.015625 298.941406 C 263.574219 298.941406 264.195312 298.671875 265.277344 297.507812 C 268.847656 293.683594 264.316406 287.816406 259.75 290.351562 M 445.273438 290.160156 C 442.28125 291.371094 441.464844 295.1875 443.667969 297.660156 C 444.808594 298.9375 445.304688 299.152344 446.988281 299.109375 C 448.585938 299.066406 449.210938 298.78125 450.257812 297.605469 C 452.449219 295.152344 451.796875 291.957031 448.78125 290.398438 C 447.292969 289.628906 446.691406 289.585938 445.273438 290.160156 M 259.433594 291.753906 C 258.945312 292.109375 258.707031 292.5625 258.902344 292.757812 C 259.097656 292.957031 259.605469 292.769531 260.027344 292.347656 C 261.023438 291.347656 260.585938 290.910156 259.433594 291.753906 M 364.53125 293.003906 C 364.246094 293.351562 363.328125 295.085938 362.484375 296.863281 C 361.917969 298.058594 361.355469 299.25 360.789062 300.445312 C 360.695312 300.632812 362.625 300.789062 365.070312 300.789062 C 369.472656 300.789062 369.519531 300.777344 369.214844 299.75 C 369.046875 299.179688 368.128906 297.570312 367.175781 296.171875 C 366.222656 294.777344 365.351562 293.351562 365.246094 293.003906 C 365.078125 292.476562 364.964844 292.476562 364.53125 293.003906 M 256.246094 314.824219 C 253.46875 317.605469 256.371094 321.542969 260.136719 320.105469 C 261.277344 319.667969 261.285156 319.632812 260.417969 318.996094 C 259.925781 318.632812 259.054688 318.339844 258.484375 318.339844 C 257.230469 318.339844 256.773438 317.710938 257.15625 316.511719 C 257.355469 315.882812 257.9375 315.578125 259.144531 315.476562 C 261.507812 315.28125 261.496094 314.003906 259.128906 313.808594 C 257.785156 313.695312 257.148438 313.921875 256.246094 314.824219 M 262.757812 314.675781 C 260.34375 316.578125 261.632812 320.183594 264.726562 320.183594 C 266.839844 320.183594 268 319.078125 268 317.066406 C 268 315.523438 266.257812 313.71875 264.769531 313.71875 C 264.332031 313.71875 263.425781 314.152344 262.757812 314.675781 M 270.136719 314.675781 C 267.703125 316.59375 268.960938 320.183594 272.070312 320.183594 C 275.167969 320.183594 276.546875 316.554688 274.164062 314.675781 C 273.496094 314.152344 272.589844 313.71875 272.148438 313.71875 C 271.710938 313.71875 270.804688 314.152344 270.136719 314.675781 M 276.609375 314.027344 C 276.4375 314.195312 276.300781 315.652344 276.300781 317.261719 C 276.300781 319.503906 276.457031 320.183594 276.96875 320.183594 C 277.4375 320.183594 277.675781 319.53125 277.773438 317.992188 C 277.898438 316.03125 278.039062 315.785156 279.066406 315.6875 C 280.203125 315.578125 280.207031 315.582031 279.183594 316.019531 C 277.679688 316.660156 277.84375 317.875 279.4375 317.875 C 280.148438 317.875 280.976562 317.625 281.28125 317.320312 C 282.128906 316.472656 281.941406 314.730469 280.945312 314.199219 C 279.945312 313.664062 277.085938 313.550781 276.609375 314.027344 M 282.757812 316.929688 C 282.757812 320.429688 282.640625 320.289062 285.523438 320.289062 C 287.765625 320.289062 288.292969 320.144531 288.292969 319.542969 C 288.292969 318.761719 287.296875 318.339844 285.457031 318.339844 C 284.226562 318.339844 284.09375 318.203125 284.226562 317.066406 C 284.355469 315.929688 284.574219 315.785156 286.359375 315.65625 C 287.9375 315.539062 288.316406 315.347656 288.199219 314.730469 C 288.085938 314.125 287.453125 313.917969 285.40625 313.8125 L 282.757812 313.675781 Z M 288.941406 314.351562 C 288.808594 314.699219 288.765625 316.101562 288.84375 317.464844 C 288.949219 319.359375 289.167969 319.980469 289.765625 320.09375 C 290.394531 320.214844 290.570312 319.816406 290.6875 318.019531 C 290.8125 316.03125 290.949219 315.785156 291.980469 315.6875 C 293.117188 315.578125 293.121094 315.582031 292.097656 316.019531 C 291.527344 316.261719 291.058594 316.695312 291.058594 316.980469 C 291.058594 317.988281 292.976562 320.183594 293.859375 320.183594 C 294.765625 320.183594 295.09375 319.066406 294.328125 318.59375 C 294.082031 318.441406 294.121094 317.769531 294.421875 316.972656 C 294.851562 315.832031 294.796875 315.460938 294.078125 314.667969 C 293.054688 313.535156 289.34375 313.308594 288.941406 314.351562 M 298.089844 314.296875 C 297.269531 315.324219 295.671875 318.742188 295.671875 319.472656 C 295.671875 320.191406 296.136719 320.289062 299.53125 320.269531 C 302.210938 320.253906 302.382812 319.742188 300.773438 316.546875 C 299.308594 313.644531 298.890625 313.292969 298.089844 314.296875 M 302.832031 314.160156 C 302.394531 314.871094 302.972656 315.566406 304 315.566406 C 304.765625 315.566406 304.894531 315.898438 304.894531 317.875 C 304.894531 319.621094 305.0625 320.183594 305.585938 320.183594 C 306.109375 320.183594 306.277344 319.625 306.277344 317.910156 C 306.277344 315.898438 306.398438 315.613281 307.316406 315.484375 C 307.886719 315.402344 308.355469 315.023438 308.355469 314.644531 C 308.355469 314.125 307.695312 313.917969 305.742188 313.8125 C 304.269531 313.734375 303 313.886719 302.832031 314.160156 M 309.363281 314.019531 C 309.1875 314.191406 309.046875 315.652344 309.046875 317.261719 C 309.046875 319.898438 309.136719 320.183594 309.988281 320.183594 C 310.859375 320.183594 310.921875 319.945312 310.796875 317.105469 C 310.671875 314.28125 310.171875 313.207031 309.363281 314.019531 M 311.691406 314.273438 C 311.378906 315.167969 314.023438 320.183594 314.808594 320.183594 C 315.589844 320.183594 317.808594 316.070312 317.808594 314.621094 C 317.808594 313.222656 316.824219 313.722656 315.71875 315.683594 L 314.78125 317.347656 L 313.875 315.679688 C 312.890625 313.875 312.027344 313.320312 311.691406 314.273438 M 320.054688 316.703125 C 319.265625 318.390625 318.714844 319.863281 318.828125 319.976562 C 319.039062 320.183594 322.191406 320.339844 324.148438 320.238281 C 324.8125 320.203125 325.183594 319.894531 325.175781 319.375 C 325.160156 318.285156 322.796875 314.058594 322.066406 313.828125 C 321.71875 313.714844 320.914062 314.867188 320.054688 316.703125 M 330.007812 314.796875 C 329.859375 315.386719 329.804688 316.789062 329.882812 317.910156 C 329.992188 319.410156 330.242188 319.988281 330.835938 320.101562 C 331.472656 320.21875 331.644531 319.925781 331.65625 318.71875 L 331.667969 317.183594 L 332.925781 318.6875 C 333.613281 319.515625 334.550781 320.191406 335.007812 320.1875 C 335.734375 320.183594 335.820312 319.808594 335.699219 317.066406 C 335.59375 314.675781 335.402344 313.949219 334.875 313.949219 C 334.472656 313.949219 334.089844 314.523438 333.949219 315.332031 L 333.710938 316.714844 L 332.644531 315.21875 C 331.390625 313.453125 330.382812 313.292969 330.007812 314.796875 M 339.132812 314.296875 C 338.3125 315.324219 336.714844 318.742188 336.714844 319.472656 C 336.714844 319.890625 337.148438 320.203125 337.753906 320.230469 C 340.027344 320.328125 342.5 320.09375 342.863281 319.742188 C 343.289062 319.332031 340.617188 313.71875 339.996094 313.71875 C 339.777344 313.71875 339.390625 313.980469 339.132812 314.296875 M 344.792969 314.824219 C 342.183594 317.441406 344.558594 321.046875 348.402344 320.3125 C 350.285156 319.953125 349.90625 318.855469 347.785156 318.515625 C 346.140625 318.253906 345.941406 318.078125 345.941406 316.921875 C 345.941406 315.753906 346.113281 315.609375 347.667969 315.480469 C 350.050781 315.28125 350.054688 314.003906 347.675781 313.808594 C 346.332031 313.695312 345.699219 313.921875 344.792969 314.824219 M 350.410156 314.019531 C 350.234375 314.191406 350.089844 315.652344 350.089844 317.261719 C 350.089844 319.898438 350.183594 320.183594 351.035156 320.183594 C 351.90625 320.183594 351.96875 319.945312 351.839844 317.105469 C 351.714844 314.28125 351.21875 313.207031 350.410156 314.019531 M 353.9375 314.402344 C 352.1875 315.628906 352.203125 318.652344 353.964844 319.832031 C 354.976562 320.507812 357.328125 320.183594 358.167969 319.253906 C 360.78125 316.363281 357.121094 312.167969 353.9375 314.402344 M 360.082031 314.027344 C 359.914062 314.195312 359.777344 315.652344 359.777344 317.261719 C 359.777344 319.878906 359.875 320.183594 360.699219 320.183594 C 361.417969 320.183594 361.621094 319.878906 361.621094 318.792969 L 361.621094 317.398438 L 362.933594 318.871094 C 363.832031 319.878906 364.492188 320.246094 365.03125 320.039062 C 366.1875 319.59375 365.921875 314.035156 364.734375 313.804688 C 364.179688 313.703125 363.925781 313.945312 363.925781 314.582031 C 363.925781 316.011719 363.246094 316.117188 362.070312 314.859375 C 360.949219 313.667969 360.59375 313.519531 360.082031 314.027344 M 368.089844 315.1875 C 367.046875 316.902344 366.035156 319.679688 366.339844 319.984375 C 366.542969 320.1875 369.722656 320.339844 371.652344 320.238281 C 372.316406 320.203125 372.683594 319.894531 372.679688 319.378906 C 372.664062 318.300781 370.300781 314.0625 369.589844 313.832031 C 369.28125 313.734375 368.605469 314.34375 368.089844 315.1875 M 373.613281 316.953125 C 373.613281 320.425781 373.496094 320.289062 376.378906 320.289062 C 378.617188 320.289062 379.144531 320.144531 379.144531 319.542969 C 379.144531 318.796875 378.164062 318.339844 376.570312 318.339844 C 375.609375 318.339844 375.457031 318.121094 375.457031 316.757812 C 375.457031 314.726562 375.058594 313.71875 374.253906 313.71875 C 373.765625 313.71875 373.613281 314.496094 373.613281 316.953125 M 383.949219 314.351562 C 383.8125 314.699219 383.769531 316.101562 383.847656 317.46875 L 383.988281 319.953125 L 386.292969 320.089844 C 389.347656 320.269531 390.417969 319.488281 390.351562 317.136719 C 390.285156 314.816406 388.964844 313.71875 386.230469 313.71875 C 384.929688 313.71875 384.101562 313.949219 383.949219 314.351562 M 391.464844 314.007812 C 391.285156 314.1875 391.136719 315.652344 391.136719 317.261719 C 391.136719 319.96875 391.214844 320.1875 392.175781 320.242188 C 394.09375 320.351562 395.851562 320.246094 396.546875 319.976562 C 397.734375 319.519531 396.289062 318.339844 394.539062 318.339844 C 393.121094 318.339844 392.980469 318.214844 392.980469 316.980469 C 392.980469 315.710938 393.113281 315.609375 394.941406 315.476562 C 396.3125 315.378906 396.902344 315.128906 396.902344 314.644531 C 396.902344 314.128906 396.25 313.917969 394.347656 313.816406 C 392.941406 313.742188 391.644531 313.828125 391.464844 314.007812 M 402.089844 313.984375 C 401.898438 314.175781 401.742188 315.652344 401.742188 317.261719 L 401.742188 320.183594 L 404.210938 320.183594 C 407.058594 320.183594 408.199219 319.308594 408.199219 317.121094 C 408.199219 314.964844 407.265625 314.089844 404.703125 313.847656 C 403.457031 313.726562 402.28125 313.789062 402.089844 313.984375 M 410.738281 314.273438 C 409.445312 315.003906 409.136719 315.578125 409.128906 317.265625 C 409.121094 319.15625 410.175781 320.183594 412.121094 320.183594 C 413.242188 320.183594 413.929688 319.851562 414.625 318.96875 C 415.878906 317.371094 415.832031 316.238281 414.449219 314.855469 C 413.21875 313.621094 412.171875 313.457031 410.738281 314.273438 M 417.199219 314.824219 C 415.320312 316.707031 415.832031 319.238281 418.261719 320.085938 C 419.679688 320.582031 422.035156 320.328125 422.035156 319.6875 C 422.035156 319.128906 420.425781 318.339844 419.300781 318.339844 C 418.554688 318.339844 418.347656 318.042969 418.347656 316.980469 C 418.347656 315.746094 418.503906 315.609375 420.078125 315.480469 C 422.457031 315.28125 422.460938 314.003906 420.082031 313.808594 C 418.738281 313.695312 418.105469 313.921875 417.199219 314.824219 M 422.804688 314.027344 C 422.636719 314.195312 422.496094 315.652344 422.496094 317.261719 C 422.496094 319.96875 422.574219 320.1875 423.535156 320.242188 C 425.453125 320.351562 427.214844 320.246094 427.90625 319.976562 C 429.097656 319.519531 427.648438 318.339844 425.898438 318.339844 C 424.476562 318.339844 424.34375 318.21875 424.34375 316.953125 C 424.34375 315.648438 424.449219 315.566406 426.136719 315.566406 C 427.804688 315.566406 428.882812 314.726562 428.152344 313.996094 C 427.777344 313.617188 423.1875 313.644531 422.804688 314.027344 M 429.261719 314.027344 C 429.09375 314.195312 428.953125 315.652344 428.953125 317.261719 C 428.953125 319.878906 429.050781 320.183594 429.875 320.183594 C 430.605469 320.183594 430.796875 319.878906 430.796875 318.703125 L 430.796875 317.21875 L 432.101562 318.78125 C 433.96875 321.019531 434.953125 320.511719 434.941406 317.3125 C 434.9375 315.972656 434.753906 314.589844 434.53125 314.238281 C 434.011719 313.414062 433.105469 313.980469 433.105469 315.132812 C 433.105469 316.339844 432.550781 316.261719 431.347656 314.875 C 430.320312 313.695312 429.804688 313.484375 429.261719 314.027344 M 435.640625 314.183594 C 435.214844 314.871094 435.808594 315.566406 436.820312 315.566406 C 437.589844 315.566406 437.714844 315.898438 437.714844 317.875 C 437.714844 319.621094 437.886719 320.183594 438.410156 320.183594 C 438.929688 320.183594 439.101562 319.621094 439.101562 317.875 C 439.101562 315.875 439.222656 315.566406 440.023438 315.566406 C 440.636719 315.566406 440.945312 315.257812 440.945312 314.644531 C 440.945312 313.832031 440.636719 313.71875 438.4375 313.71875 C 437.054688 313.71875 435.796875 313.929688 435.640625 314.183594 M 442.195312 314.007812 C 442.015625 314.1875 441.867188 315.652344 441.867188 317.261719 C 441.867188 319.96875 441.945312 320.1875 442.90625 320.242188 C 444.824219 320.351562 446.582031 320.246094 447.277344 319.976562 C 448.464844 319.519531 447.019531 318.339844 445.269531 318.339844 C 443.851562 318.339844 443.710938 318.214844 443.710938 316.980469 C 443.710938 315.710938 443.84375 315.609375 445.671875 315.476562 C 447.042969 315.378906 447.632812 315.128906 447.632812 314.644531 C 447.632812 314.128906 446.980469 313.917969 445.078125 313.816406 C 443.671875 313.742188 442.375 313.828125 442.195312 314.007812 M 449.132812 314.21875 C 448.203125 314.757812 448.0625 316.503906 448.878906 317.320312 C 449.183594 317.625 450.0625 317.898438 450.835938 317.929688 C 451.734375 317.964844 451.910156 318.054688 451.320312 318.179688 C 450.8125 318.285156 449.933594 318.472656 449.363281 318.59375 C 448.132812 318.859375 447.976562 320 449.132812 320.257812 C 449.574219 320.359375 450.769531 320.332031 451.78125 320.195312 C 453.402344 319.984375 453.644531 319.792969 453.777344 318.628906 C 453.960938 317.023438 453.503906 316.503906 451.480469 316.027344 L 449.9375 315.660156 L 451.898438 315.613281 C 453.535156 315.574219 453.859375 315.414062 453.859375 314.644531 C 453.859375 313.863281 453.554688 313.722656 451.898438 313.734375 C 450.820312 313.742188 449.574219 313.960938 449.132812 314.21875 M 263.695312 315.875 C 263.121094 316.449219 263.382812 318.238281 264.078125 318.503906 C 265.636719 319.101562 267.117188 317.421875 266.105469 316.203125 C 265.554688 315.535156 264.214844 315.351562 263.695312 315.875 M 270.808594 316.207031 C 270.386719 316.71875 270.371094 317.132812 270.75 317.847656 C 271.632812 319.496094 273.722656 318.765625 273.457031 316.902344 C 273.273438 315.597656 271.664062 315.175781 270.808594 316.207031 M 354.410156 316.261719 C 353.757812 317.957031 355.632812 319.453125 356.859375 318.222656 C 357.886719 317.195312 357.242188 315.566406 355.808594 315.566406 C 355.183594 315.566406 354.554688 315.878906 354.410156 316.261719 M 385.601562 316.890625 C 385.601562 318.476562 387.03125 319.257812 388.183594 318.300781 C 389.394531 317.292969 388.792969 315.816406 387.101562 315.652344 C 385.710938 315.519531 385.601562 315.609375 385.601562 316.890625 M 403.457031 315.855469 C 402.792969 316.519531 403.136719 318.277344 403.984375 318.546875 C 405.4375 319.011719 406.421875 318.347656 406.265625 317.007812 C 406.160156 316.101562 405.832031 315.765625 404.957031 315.660156 C 404.3125 315.585938 403.636719 315.671875 403.457031 315.855469 M 410.730469 316.515625 C 410.289062 317.90625 411.589844 319.214844 412.707031 318.511719 C 413.144531 318.234375 413.503906 317.507812 413.503906 316.902344 C 413.503906 315.355469 411.199219 315.035156 410.730469 316.515625 M 284.929688 316.316406 C 284.082031 317.164062 284.683594 317.875 286.25 317.875 C 287.570312 317.875 287.867188 317.714844 287.746094 317.066406 C 287.589844 316.246094 285.546875 315.699219 284.929688 316.316406 M 393.75 316.335938 C 393.003906 317.082031 393.519531 317.875 394.75 317.875 C 396.285156 317.875 396.699219 317.566406 396.359375 316.675781 C 396.105469 316.015625 394.304688 315.78125 393.75 316.335938 M 425.109375 316.335938 C 424.367188 317.082031 424.882812 317.875 426.109375 317.875 C 427.644531 317.875 428.0625 317.566406 427.71875 316.675781 C 427.464844 316.015625 425.667969 315.78125 425.109375 316.335938 M 444.480469 316.335938 C 443.734375 317.082031 444.25 317.875 445.480469 317.875 C 447.015625 317.875 447.429688 317.566406 447.089844 316.675781 C 446.835938 316.015625 445.035156 315.78125 444.480469 316.335938 M 298.269531 317.183594 C 297.890625 318.179688 298.117188 318.472656 299.117188 318.261719 C 299.769531 318.128906 299.785156 317.992188 299.226562 317.234375 C 298.621094 316.40625 298.570312 316.402344 298.269531 317.183594 M 321.53125 317.351562 C 321.074219 318.207031 321.128906 318.339844 321.941406 318.339844 C 322.960938 318.339844 323.09375 318 322.460938 317.003906 C 322.140625 316.496094 321.953125 316.5625 321.53125 317.351562 M 339.300781 317.222656 C 338.90625 318.253906 338.9375 318.339844 339.714844 318.339844 C 340.09375 318.339844 340.40625 318.039062 340.40625 317.671875 C 340.40625 316.695312 339.625 316.378906 339.300781 317.222656 M 368.832031 317.644531 C 368.652344 318.113281 368.855469 318.339844 369.460938 318.339844 C 370.066406 318.339844 370.269531 318.113281 370.089844 317.644531 C 369.941406 317.265625 369.660156 316.953125 369.460938 316.953125 C 369.261719 316.953125 368.980469 317.265625 368.832031 317.644531 " fill-opacity="1" fill-rule="evenodd"/></svg>