<?xml version="1.0"?>
<svg width="705" height="591.000005" xmlns="http://www.w3.org/2000/svg" xmlns:svg="http://www.w3.org/2000/svg" preserveAspectRatio="xMidYMid meet" version="1.0">
 <g class="layer">
  <title>Layer 1</title>
  <g id="svg_156">
   <path d="m335.4,139.88c5.54,2.91 10.61,6.49 15.23,10.74c4.62,4.25 8.61,8.99 12,14.27c3.69,5.92 6.85,12 7.95,18.95c-5.15,0.15 -10.31,0.28 -15.46,0.33c-2.41,0.05 -4.79,0.08 -7.18,0.15c-2.31,0.08 -4.62,0.1 -6.95,0.13c-0.87,0.03 -1.74,0.03 -2.64,0.08c-2.74,0.1 -5.31,0.08 -8,-0.7c-2.23,-1.85 -3.67,-3.99 -5.23,-6.41c-4.49,-4.94 -10.26,-7.78 -16.43,-10.04c-7.1,-1.98 -15.38,-1.88 -22.54,-0.18c-6.23,1.93 -12.31,5 -17.02,9.55c-4.49,4.97 -7.46,10.66 -8.92,17.2c-0.92,6.36 -0.1,12.41 2.23,18.36c2.54,5.33 6.36,9.97 11.05,13.52c6.15,4.2 12.85,6.18 20.18,7.11c2.54,0.15 5.08,0.21 7.64,0.21l2.2,0c1.97,0.03 3.92,0.03 5.9,0.03c2.08,0.03 4.15,0.03 6.23,0.05c3.92,0.03 7.82,0.05 11.74,0.08c5.28,0.03 10.59,0.05 15.87,0.08c8.33,0.08 16.67,0.1 25,0.15l0,34.48c-19.51,0.1 -19.51,0.1 -27.77,0.13c-5.67,0 -11.33,0.03 -17,0.05c-4.13,0.03 -8.26,0.05 -12.38,0.05c-2.2,0 -4.38,0 -6.54,0.03c-17.26,0.13 -32.72,-1.88 -47.95,-10.4c-11.05,-6.41 -20.2,-14.94 -26.64,-26.06c-6.38,-11.49 -8.87,-22.56 -8.72,-35.64c0.28,-10.69 3.82,-21.12 9.31,-30.26c7.41,-11.38 17.23,-20.29 29.28,-26.5c24,-11.87 51.74,-11.51 75.56,0.46" fill="#24b223" fill-rule="nonzero" id="svg_1"/>
   <path d="m331.53,130.64c10.49,0 21,-0.03 31.51,-0.05c4.87,0 9.74,0 14.64,-0.03c4.26,0 8.51,0 12.77,-0.03c2.23,0 4.49,0 6.74,0c19.43,-0.08 37.74,0.98 55.07,10.82c4.15,2.5 7.9,5.38 11.54,8.6l1.38,1.13c8.13,6.9 14.2,16.28 18,26.22c3.82,10.94 5.05,22.07 3.05,33.53c-2.23,11.43 -7.1,21.66 -14.61,30.54c-9.26,10.61 -20.79,18.31 -34.1,22.87c-7.41,2.37 -15.26,3.86 -23.05,3.86l-1.28,0c-1.36,0 -2.74,0 -4.1,0l-2.9,0c-2,0 -4,0 -6,0c-2.56,0 -5.13,0 -7.69,0c-1.97,0 -3.97,0 -5.95,0c-0.92,0 -1.87,0 -2.85,0c-1.31,0 -2.62,0 -3.92,0l-2.31,0l-1.67,-0.08l-0.56,-0.57c-0.05,-1.06 -0.08,-2.11 -0.08,-3.19l0,-2.06l0,-2.24l0,-2.27c0.03,-2.01 0.03,-3.99 0.03,-6c0,-2.03 0,-4.09 0,-6.13c0.03,-4.02 0.03,-8.01 0.05,-12.03l1.44,0c4.54,-0.05 9.08,-0.08 13.59,-0.13c2.33,-0.05 4.67,-0.05 7,-0.08c2.26,0 4.51,-0.03 6.77,-0.05c0.85,-0.03 1.69,-0.03 2.56,-0.03c8.36,-0.05 16.49,-1 24,-4.97c5.46,-3.3 10.13,-6.9 13.38,-12.52c3.36,-6.34 4.44,-11.64 4.28,-18.72c-0.26,-5.1 -1.95,-9.91 -4.54,-14.27c-4.46,-6.36 -9.85,-10.66 -16.79,-13.93c-6.28,-2.29 -12.2,-2.81 -18.82,-2.81c-0.92,-0.03 -1.82,-0.03 -2.74,-0.05c-2.38,0 -4.79,-0.03 -7.18,-0.03c-3.85,-0.03 -7.69,-0.08 -11.51,-0.1c-1.33,0 -2.67,-0.03 -3.97,-0.03c-10.1,-0.08 -10.1,-0.08 -12.72,-0.7c-1.28,-1.39 -1.28,-1.39 -2.13,-3.19c-1.82,-3.63 -3.97,-6.57 -6.61,-9.66l-1.18,-1.44c-7.72,-9.12 -17.97,-14.5 -28.54,-19.62l0,-0.59zm0,0" fill="#ff941a" fill-rule="nonzero" id="svg_2"/>
   <path d="m331.53,130.64c5.08,0 10.13,0 15.2,-0.03c2.36,0 4.69,0 7.05,0c11.05,-0.03 22.08,0.03 33.1,0.62l0,2.94l1.74,-0.59c0.33,1.11 0.33,1.11 0.59,2.34l-0.59,1.16l-1.74,0.59l1.18,1.16l1.15,-0.57l0,2.91l1.74,-0.59l0,4.69l1.74,-0.59l0,2.94l1.77,-0.59l-0.08,1.6c0.08,1.85 0.31,2.73 1.23,4.25l1.18,-0.57l-0.59,1.75c-1.44,0.7 -2.49,1.16 -4.08,1.16c-1.51,0.77 -1.51,0.77 -2.92,1.75l-0.59,1.18l1.62,-0.62c6.03,-2.21 11.38,-3.55 17.82,-3.86c2.13,-0.1 4.13,-0.31 6.2,-0.8l0,1.18l1.44,0.05c9.03,0.54 17.05,3.4 24.79,8.09c6.67,4.58 12.36,10.79 16.2,17.9c3.23,6.9 4.67,14.34 4.41,21.94c-0.77,8.27 -3.72,15.63 -8.23,22.56c-0.95,1.29 -1.97,2.52 -3.05,3.71l-1.23,1.34c-7,7.37 -15.67,11.64 -25.28,14.47c-3.51,0.95 -6.77,1.29 -10.38,1.47l-1.49,0.08c-1.18,0.05 -2.38,0.1 -3.59,0.18l0.59,1.16l1.18,-0.59l0,4.69l1.74,-0.59l0,2.94l1.74,-0.59l-0.08,1.29c0.1,2.16 0.79,3.76 1.85,5.64c0.64,1.44 0.69,2.47 0.64,4.04l-0.03,1.42l-0.05,1.06l1.74,-0.57l-0.59,1.75l-41.36,0l0,-33.92l8.36,-0.08c1.77,0 3.51,-0.03 5.28,-0.05c2.79,-0.03 5.59,-0.05 8.38,-0.08c2.26,0 4.51,-0.03 6.77,-0.05c0.85,-0.03 1.69,-0.03 2.56,-0.03c8.36,-0.05 16.49,-1 24,-4.97c5.46,-3.3 10.13,-6.9 13.38,-12.52c3.36,-6.34 4.44,-11.64 4.28,-18.72c-0.26,-5.1 -1.95,-9.91 -4.54,-14.27c-4.46,-6.36 -9.85,-10.66 -16.79,-13.93c-6.28,-2.29 -12.2,-2.81 -18.82,-2.81c-0.92,-0.03 -1.82,-0.03 -2.74,-0.05c-2.38,0 -4.79,-0.03 -7.18,-0.03c-3.85,-0.03 -7.69,-0.08 -11.51,-0.1c-1.33,0 -2.67,-0.03 -3.97,-0.03c-10.1,-0.08 -10.1,-0.08 -12.72,-0.7c-1.28,-1.39 -1.28,-1.39 -2.13,-3.19c-1.82,-3.63 -3.97,-6.57 -6.61,-9.66l-1.18,-1.44c-7.72,-9.12 -17.97,-14.5 -28.54,-19.62l0,-0.59zm0,0" fill="#ff941a" fill-rule="nonzero" id="svg_3"/>
   <path d="m442.75,304.62l1.18,0c1.26,0 2.51,0 3.79,0l2.64,0c1.87,-0.03 3.74,-0.03 5.59,0c2.38,0 4.74,-0.03 7.1,-0.03c1.82,-0.03 3.67,-0.03 5.51,-0.03c0.87,0 1.74,0 2.59,0c8.05,-0.05 15.31,1.26 22.49,5.12c4.08,2.58 7.67,5.87 10.2,9.99c4.2,8.52 5.31,17.85 4.85,27.27c-0.67,7.78 -2.64,15.09 -7,21.63c-2.69,3.53 -5.85,5.79 -9.74,7.83l-1.05,0.57c-6.74,3.24 -14.05,3.58 -21.38,3.55l-2.64,0c-1.82,0 -3.67,0 -5.49,0c-2.33,0 -4.67,0 -7,0.03c-1.82,0.03 -3.62,0.03 -5.44,0c-0.85,0 -1.72,0.03 -2.56,0.03c-7.51,0.05 -7.51,0.05 -10.13,-1.24c-1.54,-1.36 -2.23,-2.37 -3,-4.25c-0.67,-2.45 -0.59,-4.92 -0.56,-7.44l-0.03,-1.85c0,-2.01 0,-4.02 0,-6.03l-0.03,-4.2c0,-2.94 0,-5.87 0,-8.81c0.03,-3.73 0,-7.49 0,-11.25c-0.03,-2.88 -0.03,-5.77 0,-8.65c0,-1.39 -0.03,-2.78 -0.03,-4.15c0,-1.96 0,-3.89 0,-5.82l-0.03,-1.73c0.05,-2.47 0.15,-4.56 1.28,-6.8c1.38,-1.75 1.38,-1.75 3.03,-2.88c2.05,-0.7 3.67,-0.85 5.85,-0.88m9.41,18.95l0,37.42l11.87,0.13l3.72,0.08c0.97,0 1.97,0.03 2.95,0.03l1.51,0.03c3.82,0 6.85,-0.9 10.26,-2.6c1.72,-1.06 3.03,-2.24 4.18,-3.94c2.1,-3.84 2.82,-8.01 3,-12.36c-0.13,-3.94 -0.79,-7.91 -2.72,-11.41c-1.72,-2.45 -3.54,-4.2 -6.2,-5.61c-4.44,-1.55 -8.9,-1.85 -13.54,-1.8l-1.18,0c-1.41,0 -2.82,0 -4.23,0.03l-9.61,0.03zm-166.09,-191.75l-1.46,1.34l-1.46,1.57l0,1.75l-1.15,0l-0.59,2.34l2.33,-0.57l-1.41,1.31c-1.54,1.42 -1.54,1.42 -1.97,2.96l-0.1,0.98l-1.18,0l-0.56,2.34l1.74,-0.59l-0.59,1.75l-1.21,0.88l-1.13,0.88l0,1.75l-1.15,0l-0.59,2.34l1.74,-0.57l-0.59,1.75l-1.21,0.88l-1.13,0.88l0,1.75l-1.15,0l-0.1,1.06l-0.49,1.29c-1.26,0.93 -1.26,0.93 -2.87,1.85c-7.28,4.43 -13,10.38 -17.15,17.82c-4.13,8.55 -5.05,17.13 -4.44,26.5c0.82,6.72 3.82,13.11 7.72,18.59c5.23,6.9 11.38,11.36 18.92,15.45l1.44,0.8l1.31,0.7l0.92,0.7l0,1.78l1.74,-1.18c1.28,0.23 1.28,0.23 2.33,0.59c0,2.11 -0.23,3.94 -1.18,5.85l1.18,0.59l-1.44,1.08c-1.51,1.08 -1.51,1.08 -2.08,2.42l2.92,-1.18c-1.05,2.42 -1.92,4.3 -3.9,6.08l-1.36,0.95l-0.56,1.16l2.9,-1.16c-0.44,0.88 -0.87,1.73 -1.31,2.6l-0.74,1.44c-0.85,1.21 -0.85,1.21 -1.85,1.75c-2.08,0.08 -3.9,-0.64 -5.82,-1.34c-0.44,-0.15 -0.87,-0.31 -1.33,-0.49c-11.87,-4.48 -23.08,-11.85 -31.33,-21.61c-7.82,-9.63 -12.85,-20.55 -15.08,-32.76c-1.38,-12.93 0.41,-24.85 5.59,-36.7c5.13,-10.97 13.64,-20.42 23.43,-27.38c9.72,-6.57 23.46,-13.34 35.43,-12.98m5.95,173.34c3.05,1.21 4.92,3.63 6.95,6.15c0.77,0.95 1.51,1.93 2.26,2.91l1.44,1.85c0.97,1.26 1.95,2.52 2.9,3.79c1.51,1.98 3.03,3.91 4.54,5.87c2.92,3.71 5.85,7.47 8.74,11.2l1,1.29l0.87,1.13c1.05,1.36 2.15,2.73 3.23,4.09l0.03,-1.24c0.03,-3.89 0.08,-7.75 0.13,-11.61c0.03,-1.98 0.05,-3.99 0.05,-5.97c0.03,-2.29 0.05,-4.58 0.1,-6.88l0,-2.16c0.05,-2.78 0.1,-5 1.1,-7.62c0.92,-1.34 0.92,-1.34 2.26,-2.45c2.95,-1.24 6.03,-0.95 9.15,-0.64c2.1,0.72 3.2,1.47 4.85,2.91c1,1.16 1,1.16 1.59,2.94c0.05,0.88 0.08,1.75 0.08,2.63l0,1.62l0.03,1.78l0,1.88c0,2.09 0.03,4.15 0.03,6.21l0,2.11c0,3.73 0.03,7.47 0.03,11.18c0,3.84 0.03,7.7 0.05,11.54c0.03,2.96 0.03,5.92 0.03,8.88c0,1.42 0,2.83 0.03,4.25c0,1.98 0,3.97 0,5.95l0.03,1.78c-0.03,3.89 -0.03,3.89 -0.79,5.64c-0.82,1.26 -1.64,2.21 -2.85,3.09c-3.36,1.18 -6.54,1.42 -10.05,1.03c-1.97,-0.57 -3.08,-1.31 -4.54,-2.76c-3.28,-3.58 -6.23,-7.52 -9.2,-11.38c-1.33,-1.7 -2.67,-3.4 -4,-5.12c-0.26,-0.33 -0.54,-0.67 -0.79,-1c-2.79,-3.58 -5.64,-7.11 -8.46,-10.66c-1.56,-1.96 -3.13,-3.91 -4.69,-5.87l-0.95,-1.21l0,1.18c-0.05,4.02 -0.1,8.06 -0.15,12.08c-0.03,1.52 -0.05,3.01 -0.05,4.53c-0.03,2.16 -0.05,4.33 -0.08,6.49l-0.03,2.01c-0.05,3.58 -0.31,6.23 -2.03,9.37c-0.87,1.11 -0.87,1.11 -1.74,1.75c-3.03,1.03 -6.18,0.85 -9.33,0.59c-1.79,-0.49 -3.28,-1.06 -4.67,-2.34c-1.03,-1.57 -1.67,-2.96 -1.9,-4.84c-0.08,-1.62 -0.08,-3.24 -0.08,-4.84l0,-1.88c-0.03,-2.03 0,-4.07 0,-6.1c0,-1.42 0,-2.83 0,-4.25c-0.03,-2.96 0,-5.92 0,-8.88c0.03,-3.81 0,-7.6 0,-11.41c-0.03,-2.91 0,-5.82 0,-8.76c0,-1.39 0,-2.81 0,-4.2c-0.03,-1.96 0,-3.91 0,-5.87l0,-1.75c0.03,-2.47 0.13,-4.2 1.05,-6.54c0.92,-1.42 0.92,-1.42 1.87,-2.27c3.85,-1.93 7.79,-2.14 12,-1.18m-133.58,1.47c6.97,2.91 12.69,6.77 17.41,12.77c3.85,5.43 6.18,11.36 7.46,17.87c0.69,7.75 -0.46,14.89 -3.62,22.02c-3.2,6.41 -6.9,10.97 -12.85,14.94c-4.95,3.17 -10.72,5.74 -16.64,6.13c-8.54,0.36 -15.33,-0.39 -23.08,-4.27c-3.62,-2.06 -6.56,-4.53 -9.49,-7.49l-0.97,-0.93c-4,-4.12 -6.72,-10.46 -8.36,-15.92c-1.46,-7.08 -1.13,-14.55 1,-21.45c2.28,-6.1 5.46,-10.92 10.08,-15.48l1.08,-1.13c3.49,-3.43 7.87,-5.25 12.33,-7.06l1.56,-0.64c7.15,-2.45 17.08,-2.11 24.08,0.64m-24.56,20.78c-2.67,2.09 -4.49,4.48 -5.95,7.57c-1.44,3.89 -1.38,7.88 -0.95,11.97c0.51,1.96 1.26,3.55 2.33,5.25l0.62,1.11c1.62,2.58 3.64,4.12 6.15,5.77c3.82,2.03 7.54,2.29 11.79,2.16c2.97,-0.23 5.31,-1.18 7.87,-2.65c3.03,-2.21 5.23,-4.58 7,-7.91c1.38,-3.37 1.9,-6.57 1.74,-10.22c-0.49,-3.73 -2,-6.9 -4.08,-10.02c-2.56,-3.24 -6.05,-5.02 -9.85,-6.52c-6.2,-1.11 -11.44,-0.05 -16.69,3.48m434.85,-20.78c6.97,2.91 12.69,6.77 17.41,12.77c3.85,5.43 6.15,11.36 7.46,17.87c0.69,7.75 -0.46,14.89 -3.64,22.02c-3.18,6.41 -6.9,10.97 -12.82,14.94c-4.95,3.17 -10.72,5.74 -16.64,6.13c-8.56,0.36 -15.36,-0.39 -23.1,-4.27c-3.62,-2.06 -6.56,-4.53 -9.46,-7.49l-0.97,-0.93c-4.03,-4.12 -6.74,-10.46 -8.36,-15.92c-1.46,-7.08 -1.15,-14.55 0.97,-21.45c2.31,-6.1 5.49,-10.92 10.1,-15.48l1.05,-1.13c3.49,-3.43 7.87,-5.25 12.36,-7.06l1.54,-0.64c7.18,-2.45 17.1,-2.11 24.1,0.64m-24.59,20.78c-2.67,2.09 -4.49,4.48 -5.95,7.57c-1.41,3.89 -1.38,7.88 -0.95,11.97c0.54,1.96 1.28,3.55 2.33,5.25l0.62,1.11c1.62,2.58 3.64,4.12 6.15,5.77c3.82,2.03 7.56,2.29 11.82,2.16c2.95,-0.23 5.31,-1.18 7.87,-2.65c3.03,-2.21 5.23,-4.58 6.97,-7.91c1.41,-3.37 1.9,-6.57 1.77,-10.22c-0.51,-3.73 -2,-6.9 -4.1,-10.02c-2.56,-3.24 -6.05,-5.02 -9.82,-6.52c-6.23,-1.11 -11.44,-0.05 -16.72,3.48m-300.62,-20.78c7,2.91 12.72,6.77 17.43,12.77c3.85,5.43 6.15,11.36 7.46,17.87c0.67,7.75 -0.46,14.89 -3.64,22.02c-3.2,6.41 -6.9,10.97 -12.82,14.94c-4.95,3.17 -10.72,5.74 -16.67,6.13c-8.51,0.36 -15.33,-0.39 -23.08,-4.27c-3.62,-2.06 -6.56,-4.53 -9.49,-7.49l-0.95,-0.93c-4.03,-4.12 -6.74,-10.46 -8.36,-15.92c-1.46,-7.08 -1.13,-14.55 0.97,-21.45c2.31,-6.1 5.49,-10.92 10.1,-15.48l1.05,-1.13c3.49,-3.43 7.9,-5.25 12.33,-7.06l1.56,-0.64c7.18,-2.45 17.08,-2.11 24.08,0.64m-24.54,20.78c-2.69,2.09 -4.51,4.48 -5.97,7.57c-1.41,3.89 -1.38,7.88 -0.95,11.97c0.54,1.96 1.28,3.55 2.33,5.25l0.62,1.11c1.62,2.58 3.64,4.12 6.15,5.77c3.82,2.03 7.56,2.29 11.82,2.16c2.95,-0.23 5.31,-1.18 7.85,-2.65c3.05,-2.21 5.26,-4.58 7,-7.91c1.41,-3.37 1.9,-6.57 1.77,-10.22c-0.49,-3.73 -2.03,-6.9 -4.1,-10.02c-2.56,-3.24 -6.05,-5.02 -9.82,-6.52c-6.2,-1.11 -11.46,-0.05 -16.69,3.48m-140.38,-20.78c6.36,2.63 11.36,6.75 15.79,11.95c3.08,4.12 5.82,8.7 6.95,13.75l0,1.75c-2.85,0.15 -5.67,0.23 -8.49,0.31c-0.97,0.03 -1.92,0.05 -2.9,0.1c-3.08,0.15 -5.97,0.18 -9.03,-0.41c-1.92,-1.47 -2.92,-3.12 -4.08,-5.25c-2.74,-2.37 -5.77,-3.66 -9.33,-4.38c-3.79,-0.49 -7.05,-0.03 -10.61,1.39c-2.85,1.34 -5.23,2.81 -7.18,5.36c-2.23,3.32 -3.23,6.41 -3.69,10.4c-0.13,3.43 0.38,6.13 1.79,9.22c1.64,3.04 3.44,5.2 6.28,7.13c3.9,2.29 7.49,3.09 12,3.17l2.28,0.03l2.46,0.03l2.54,0.05c2.23,0.03 4.44,0.05 6.67,0.08c2.67,0.03 5.33,0.08 7.97,0.1c4.05,0.05 8.1,0.13 12.13,0.18l0,19.29c-9.97,0.08 -9.97,0.08 -14.28,0.1c-2.92,0.03 -5.82,0.03 -8.74,0.05c-2.36,0.05 -4.72,0.05 -7.08,0.05c-0.9,0 -1.79,0.03 -2.67,0.03c-7.67,0.13 -14.26,-0.98 -21.26,-4.38c-6.26,-3.63 -11.67,-8.83 -15.33,-15.14c-3.31,-6.67 -4.92,-13.39 -4.79,-20.83c0.49,-6.77 2.31,-13.31 6.13,-18.98c4.64,-6.31 9.69,-11.1 16.82,-14.5c9.74,-3.84 19.77,-4.22 29.64,-0.64" fill="#229422" fill-rule="nonzero" id="svg_4"/>
   <path d="m386.29,304.88c1.54,1.36 2.44,2.81 3.44,4.61l0.95,1.78l1.05,1.91c0.92,1.67 1.87,3.35 2.79,5.05c1.85,3.32 3.77,6.59 5.69,9.89c3.23,5.51 6.33,11.1 9.41,16.71c3.67,6.72 7.46,13.37 11.36,19.93c1.08,1.85 2.15,3.73 3.2,5.59l0,10.53l-75.17,0c0,-10.53 0,-10.53 1.74,-14.63c0.77,-1.29 1.59,-2.58 2.41,-3.84c0.41,-0.7 0.85,-1.39 1.28,-2.09c0.85,-1.44 1.72,-2.86 2.62,-4.27c1.95,-3.14 3.72,-6.39 5.49,-9.63c0.67,-1.21 1.33,-2.42 2.03,-3.63l0.97,-1.75c2.28,-4.09 4.62,-8.16 6.95,-12.23c1.13,-1.98 2.26,-3.94 3.36,-5.92l3.1,-5.43c2.38,-4.22 4.82,-8.42 7.33,-12.57m0,30.39c-0.82,1.31 -1.62,2.63 -2.41,3.99l-0.74,1.29c-2.49,4.33 -4.92,8.7 -7.36,13.06l-0.59,1.08l-2.69,4.82c-0.82,1.49 -0.82,1.49 -1.33,3.24l30.87,0c-0.87,-2.16 -1.72,-4.04 -2.85,-6.05l-1.03,-1.83l-1.08,-1.91l-1.1,-1.96c-2.2,-3.91 -4.41,-7.8 -6.67,-11.67l-0.72,-1.29c-0.56,-0.93 -1.13,-1.85 -1.72,-2.78l-0.59,0zm0,0" fill="#629e46" fill-rule="nonzero" id="svg_5"/>
   <path d="m641.35,304.21l1.31,0c1.46,0 2.9,0 4.33,0.03l3,0c2.64,0 5.26,0 7.9,0c2.69,0 5.38,0 8.08,0.03c5.26,0 10.54,0 15.79,0.03c-1.36,1.42 -2.67,2.32 -4.41,3.27c-5.59,3.32 -9.64,7.57 -13.08,13.11l-0.64,1.52l-1.1,1.39c-1.62,0.31 -2.9,0.39 -4.54,0.36l-1.36,0.03c-1.44,0.03 -2.87,0.03 -4.31,0c-9.67,-0.15 -9.67,-0.15 -18.95,2.09c-4.08,2.52 -6.31,5.23 -8.61,9.37c-1.15,3.61 -1.54,7.13 -1.05,10.89c0.77,3.45 2.1,6.13 4.38,8.83c2.69,2.58 5.59,4.25 9.18,5.28c2.49,0.62 4.9,0.77 7.46,0.8l1.33,0.05c1.41,0.03 2.82,0.05 4.23,0.08l2.87,0.08c2.36,0.05 4.69,0.1 7.03,0.15l-0.59,19.29c-3.15,0.05 -6.31,0.1 -9.46,0.13c-1.08,0 -2.15,0.03 -3.23,0.03c-8.51,0.18 -15.56,-0.54 -23.33,-4.35c-3.59,-2.09 -6.51,-4.56 -9.41,-7.49c-0.38,-0.36 -0.74,-0.7 -1.1,-1.06c-4.03,-4.09 -6.59,-9.68 -8.33,-15.09c-1.77,-7.44 -1.59,-14.68 0.54,-21.99c2.31,-6.98 6.08,-12.54 11.44,-17.56c5.56,-4.69 11.54,-7.18 18.56,-8.94c2.03,-0.33 4.03,-0.33 6.08,-0.33" fill="#ff941a" fill-rule="nonzero" id="svg_6"/>
   <path d="m421.27,175.65c5.23,2.37 9.28,5.23 12.67,9.84c1.79,2.65 2.9,5.2 3.67,8.29l0.38,1.52c0.59,4.61 0,8.73 -1.56,13.11c-2.23,4.53 -5.2,8.19 -9.33,11.1c-4.87,2.91 -9.69,4.79 -15.41,4.89c-5.85,0 -10.74,-0.72 -16.02,-3.43c-4.28,-2.55 -7.61,-5.67 -10.26,-9.94c-2.18,-4.09 -3.46,-8.37 -3.31,-13.06c0.64,-5.61 2.87,-10.2 6.08,-14.78c3.33,-3.79 8,-6.44 12.72,-8.11c6.56,-2.19 13.92,-1.78 20.38,0.57" fill="#24b223" fill-rule="nonzero" id="svg_7"/>
   <path d="m308.22,175.08c4.67,1.73 8.23,4.56 11.64,8.19c2.87,3.55 4.79,7.16 5.54,11.67c0.54,4.58 0.18,8.55 -1.46,12.88c-1.92,4.12 -4.54,7.75 -8.15,10.53c-5.18,3.06 -10.28,5.36 -16.38,5.49c-6.61,-0.03 -11.69,-0.93 -17.56,-4.17c-4.15,-2.7 -7.1,-5.64 -9.38,-10.1c-1.82,-3.91 -3,-7.6 -2.87,-11.95c0.56,-4.82 2.2,-9.3 5.05,-13.19c3.08,-3.79 6.38,-6.75 10.85,-8.78c7.85,-2.73 14.77,-3.01 22.74,-0.57" fill="#ff941a" fill-rule="nonzero" id="svg_8"/>
   <path d="m457.39,185.59l1.18,0c0.28,0.93 0.56,1.8 0.82,2.7l0.49,1.52c1.79,6.67 1.56,13.7 -0.15,20.34c-1.95,6.62 -5.26,13.01 -9.9,18.13l-1.23,1.34c-7,7.37 -15.67,11.64 -25.28,14.47c-3.51,0.95 -6.77,1.29 -10.38,1.47l-1.49,0.08c-1.18,0.05 -2.38,0.1 -3.59,0.18l0.59,1.16l1.18,-0.59l0,4.69l1.74,-0.59l0,2.94l1.74,-0.59l-0.08,1.29c0.1,2.16 0.79,3.76 1.85,5.64c0.64,1.44 0.69,2.47 0.64,4.04l-0.03,1.42l-0.05,1.06l1.74,-0.57l-0.59,1.75l-41.36,0l0,-33.92l8.36,-0.08c1.77,0 3.51,-0.03 5.28,-0.05c2.79,-0.03 5.59,-0.05 8.38,-0.08c2.26,0 4.51,-0.03 6.77,-0.05c0.85,-0.03 1.69,-0.03 2.56,-0.03c8.36,-0.05 16.49,-1 24,-4.97c5.46,-3.3 10.13,-6.9 13.38,-12.52c2.85,-5.38 4.2,-10.1 4.46,-16.15l0.05,-1.36c0.08,-1.11 0.13,-2.19 0.15,-3.3l0.59,0l0,4.66l1.18,0l0.46,-1.52c0.72,-2.06 1.64,-3.89 2.69,-5.82l1.05,-1.93l1.03,-1.83c0.46,-0.85 0.46,-0.85 0.95,-1.7l0.79,-1.24zm0,0" fill="#ff6106" fill-rule="nonzero" id="svg_9"/>
   <path d="m333.76,233.34l1.92,0l2.2,0l2.36,0.03c0.79,0 1.62,0 2.41,0c2.13,0.03 4.26,0.05 6.36,0.05c2.15,0.03 4.33,0.03 6.49,0.05c4.26,0 8.49,0.05 12.74,0.08l0,34.48l-61.2,0l0,-1.75l1.18,0l0.56,-2.32l-1.15,-0.59l1.15,-0.59c0.44,-1.16 0.82,-2.32 1.18,-3.5l1.15,0l0.59,-2.34l-1.15,-0.59l1.15,-0.57c0.44,-1.16 0.82,-2.34 1.18,-3.53l1.15,0l0.59,-2.32l-1.18,-0.59l1.18,-0.59c0.41,-1.16 0.82,-2.32 1.15,-3.5l1.18,0l0.56,-2.34l-1.74,0.59l0,-1.18l1.28,-0.49c4.74,-1.88 9.9,-3.99 13.74,-7.44c1.31,-0.82 1.31,-0.82 2.95,-1.03m-282.55,87.33l1.15,0c0.87,1.42 1.28,2.73 1.77,4.33l0,2.09c-1.49,1.36 -1.49,1.36 -2.49,2.06c-2.13,1.8 -3.41,4.17 -4.51,6.72c-1,3.53 -1.41,6.98 -0.87,10.64c0.82,3.22 2.31,6.03 4.36,8.65c2.56,2.47 5.41,4.04 8.74,5.25c2.26,0.57 4.41,0.67 6.72,0.72l2.31,0.03l2.46,0.03l2.54,0.05c2.23,0.03 4.44,0.05 6.67,0.08c2.67,0.03 5.33,0.08 7.97,0.1c4.05,0.05 8.1,0.13 12.13,0.18l0,19.29c-9.97,0.08 -9.97,0.08 -14.28,0.1c-2.92,0.03 -5.82,0.03 -8.74,0.05c-2.36,0.05 -4.72,0.05 -7.08,0.05c-0.9,0 -1.79,0.03 -2.67,0.03c-7.67,0.13 -14.26,-0.98 -21.26,-4.38c-5,-2.86 -9.64,-6.93 -13,-11.64c0.15,-1.36 0.15,-1.36 0.59,-2.34l1.15,0l-0.56,-1.75c0.72,-1.39 0.72,-1.39 1.74,-2.94l0.79,-1.42c0.95,-1.49 0.95,-1.49 2.59,-3.09l1.28,-1.91c-0.08,-1.31 -0.44,-2.45 -0.79,-3.71c-0.97,-4.12 -0.79,-8.73 0.28,-12.82c1.56,-4.51 4.23,-8.65 7.51,-12.13c1.85,-1.39 1.85,-1.39 3.49,-2.32" fill="#24b223" fill-rule="nonzero" id="svg_10"/>
   <path d="m455.65,218.94l0.59,1.75c-0.59,1.13 -0.59,1.13 -1.41,2.34c-0.85,1.16 -0.85,1.16 -1.51,2.32l0,1.75l1.18,-0.59l0,2.94l2.33,-1.16l0,4.66l1.74,-0.59l0,4.69l1.74,-0.59l0.59,1.18l1.15,-0.59l0.59,1.18l1.15,-0.59l-0.03,1.29c0.03,1.6 0.31,2.99 0.62,4.56l0,2.34l1.18,0.57c-0.64,1.7 -1.36,2.52 -2.69,3.79c-11.2,9.12 -23.79,14.42 -37.92,17.05c-3.51,0.57 -6.92,0.88 -10.51,0.88l-1.28,0c-1.36,0 -2.74,0 -4.13,0l-2.87,0c-2.51,0 -5.03,-0.03 -7.54,-0.03c-2.56,0 -5.13,-0.03 -7.72,-0.03c-5.03,0 -10.05,0 -15.1,-0.03l0,-0.57l40.79,-0.59l-1.74,-0.59l0,-6.41l-1.15,-0.59c-0.85,-2.11 -1.18,-3.55 -1.18,-5.85l-1.74,0l0,-2.34l-1.74,0l0,-4.09l-1.74,0l-1.18,-1.75l1,-0.03c11.41,-0.23 22.1,-2.29 32.05,-8.27c6.87,-4.66 12.59,-10.66 16.49,-18" fill="#ff6106" fill-rule="nonzero" id="svg_11"/>
   <path d="m250.53,216.01c1.38,1.78 2.44,3.61 3.51,5.59c4.28,7.37 10.36,12.7 17.64,16.95c2.26,1.29 4.51,2.55 6.82,3.76l0,1.78l1.74,-1.18c1.28,0.23 1.28,0.23 2.33,0.59c0,2.11 -0.23,3.94 -1.18,5.85l1.18,0.59l-1.44,1.08c-1.51,1.08 -1.51,1.08 -2.08,2.42l2.92,-1.18c-1.05,2.42 -1.92,4.3 -3.9,6.08l-1.36,0.95l-0.56,1.16l2.9,-1.16c-0.44,0.88 -0.87,1.73 -1.31,2.6l-0.74,1.44c-0.85,1.21 -0.85,1.21 -1.85,1.75c-2.08,0.08 -3.9,-0.64 -5.82,-1.34c-0.44,-0.15 -0.87,-0.31 -1.33,-0.49c-10.03,-3.79 -20.79,-9.86 -28,-18l0,-1.75l-0.56,-0.59c0.26,-1.18 0.26,-1.18 0.56,-2.34l-1.15,-0.57l1.36,-1.26c1.54,-1.65 2.38,-3.12 3.31,-5.18l-1.74,-0.59l1.33,-1.24c1.54,-1.65 2.41,-3.12 3.31,-5.2l-1.74,-0.57l1.36,-1.24c1.54,-1.67 2.41,-3.14 3.31,-5.2l-1.74,-0.57l2.92,-2.94zm0,0" fill="#229422" fill-rule="nonzero" id="svg_12"/>
   <path d="m308.22,175.08c4.67,1.73 8.23,4.56 11.64,8.19c2.87,3.55 4.79,7.16 5.54,11.67c0.54,4.58 0.18,8.55 -1.46,12.88c-1.92,4.12 -4.54,7.75 -8.15,10.53c-5.18,3.06 -10.28,5.36 -16.38,5.49c-6.61,-0.03 -11.69,-0.93 -17.56,-4.17c-4.15,-2.7 -7.1,-5.64 -9.38,-10.1c-1.82,-3.91 -3,-7.6 -2.87,-11.95c0.56,-4.82 2.2,-9.3 5.05,-13.19c3.08,-3.79 6.38,-6.75 10.85,-8.78c7.85,-2.73 14.77,-3.01 22.74,-0.57m-28.82,8.68c-2.64,2.37 -4.59,5.23 -6.08,8.45c-1.38,4.46 -1.67,9.19 -1.23,13.85c0.59,2.32 1.44,3.97 2.9,5.85l0.87,1.24c2.9,3.71 6.74,6.18 10.95,8.16c5.33,2.11 11.2,2.27 16.85,1.44c4.82,-1.08 9.15,-2.99 12.97,-6.18c2.28,-2.09 2.28,-2.09 3.64,-4.82l0.18,-1l-3.49,0l0.87,-1.47c1.08,-2.52 1.1,-4.02 0.87,-6.72l-1.18,-1.18c-1.36,-0.33 -1.36,-0.33 -2.9,0l-1.51,1.44c-0.85,0.8 -0.85,0.8 -2,1.49c-1.82,0.31 -3.59,0.44 -5.46,0.52c-1.51,-0.03 -1.51,-0.03 -2.69,0.64l0,1.18l-4.08,0l0,1.16l-1.15,-0.59l0.49,-0.85c1.79,-3.58 2.08,-6.7 2.26,-10.66c0.21,-2.58 0.72,-4.27 1.9,-6.59l1.62,-1.57l1.31,-1.36c0,-1.44 0,-1.44 -0.59,-2.91c-0.97,-1.21 -0.97,-1.21 -2.26,-2.19l-1.23,-1.06c-1.62,-1.18 -2.87,-1.44 -4.85,-1.65c-6.85,-0.36 -11.44,1.21 -16.97,5.38m348.75,138.65l0,5.82l1.15,0.59l-0.69,0.9c-2.33,2.99 -4.13,5.64 -4.85,9.45c-0.44,3.66 -0.31,6.85 0.82,10.35c1.41,3.24 3.31,5.72 6.13,7.85c3.59,2.29 7.23,3.55 11.49,3.79c0.85,0.03 1.69,0.05 2.54,0.05l1.33,0.05c1.41,0.03 2.82,0.05 4.23,0.08l2.87,0.08c2.36,0.05 4.69,0.1 7.03,0.15l-0.59,19.29c-3.15,0.05 -6.31,0.1 -9.46,0.13c-1.08,0 -2.15,0.03 -3.23,0.03c-6.72,0.15 -13,0 -19.36,-2.5c-1.38,-0.95 -1.38,-0.95 -2.33,-1.75l1.28,-0.57c2.33,-1.7 3.31,-3.89 4.56,-6.46l1.05,-2.09l0.69,-1.42l-1.74,0l0,-1.16l-1.03,-0.18c-2.62,-0.8 -4.59,-2.63 -6.56,-4.51c-3.36,-4.15 -5.38,-8.78 -6.41,-14.04c-0.51,-5.02 -0.05,-9.89 1.74,-14.6c1.85,-3.55 3.72,-6.44 7,-8.78c1.74,-0.57 1.74,-0.57 2.33,-0.57" fill="#ff6106" fill-rule="nonzero" id="svg_13"/>
   <path d="m372.32,130.64c5.31,0 10.61,0 15.92,-0.03c2.46,0 4.92,0 7.38,0c2.36,-0.03 4.74,-0.03 7.13,-0.03c0.92,0 1.82,0 2.72,0c9.54,-0.03 9.54,-0.03 13.46,0.64l1.18,1.18c0.1,1.26 0.1,1.26 0.08,2.68l-0.05,1.47l-0.03,1.11l1.74,-0.59l0,4.69l1.74,-0.59l0,4.69l1.74,-0.59l0.49,1.91c0.59,1.93 1.13,3.04 2.44,4.53l1.15,-0.59l0,4.69l1.77,-0.59l-1.18,2.34l-1.26,-0.57c-1.59,-0.59 -3.05,-0.93 -4.72,-1.21l-1.72,-0.31l-1.77,-0.28c-1.18,-0.21 -2.36,-0.41 -3.51,-0.62l-1.56,-0.26l-1.21,-0.26l-0.56,-0.59l-0.95,0.23c-1.87,0.46 -3.69,0.46 -5.62,0.54c-5.03,0.23 -9.59,1.34 -14.44,2.73l-1.15,0.33c-0.97,0.28 -1.95,0.57 -2.92,0.85l0.59,-1.78c1.69,-1.31 1.69,-1.31 3.49,-2.32l1.77,0.57l1.15,-1.16l-1.15,-0.59c-0.26,-1.21 -0.26,-1.21 -0.36,-2.65l-0.15,-1.47l-0.08,-1.13l-1.74,0l0,-2.34l-1.74,0l0,-4.09l-1.77,0l0,-2.34l-1.15,0.59l0,-1.16l-1.18,-0.59l2.33,-0.59l-0.56,-2.91l-1.77,0l0.59,-2.94l-14.56,0l0,-0.59zm0,0" fill="#ff941a" fill-rule="nonzero" id="svg_14"/>
   <path d="m61.39,304.52l0.9,0.36l-1.38,1.26c-1.49,1.6 -2.05,2.55 -2.69,4.58c-0.59,1.57 -1.08,2.78 -2.08,4.12c-0.92,1.08 -0.92,1.08 -1.13,2.34c-0.31,1.13 -0.31,1.13 -1.03,1.96c-1.18,1.06 -2.44,1.85 -3.79,2.7c-3.67,2.55 -5.85,5.67 -7.87,9.61c-2.31,4.92 -2.46,9.53 -2.18,14.91c0.23,1.11 0.49,2.19 0.77,3.27c0.33,1.39 0.33,1.39 0.41,2.58c-1.28,1.65 -1.28,1.65 -2.92,2.94c-1.36,2.03 -2.46,4.2 -3.51,6.44l0,1.16l-2.31,1.16c-3.69,-5.15 -5.74,-11.23 -6.41,-17.54c-0.49,-6.95 0.59,-13.8 3.36,-20.24c3.2,-6.23 7.95,-11.82 13.79,-15.68c3.95,-2.42 7.72,-4.04 12.2,-5.2l1.21,-0.33c1.64,-0.39 3,-0.67 4.67,-0.39" fill="#229422" fill-rule="nonzero" id="svg_15"/>
   <path d="m649.82,304.21l2.15,0l2.31,0.03l2.38,0c2.08,0 4.15,0 6.23,0c2.13,0 4.26,0 6.38,0.03c4.15,0 8.33,0 12.49,0.03c-1.36,1.42 -2.67,2.32 -4.41,3.27c-5.59,3.32 -9.64,7.57 -13.08,13.11l-0.64,1.52l-1.1,1.39c-1.62,0.31 -2.9,0.39 -4.54,0.36l-1.36,0.03c-1.44,0.03 -2.87,0.03 -4.31,0c-9.64,-0.23 -9.64,-0.23 -18.9,2.11l-1.21,0.8c-0.77,0.49 -1.54,0.95 -2.33,1.36l-1.74,0l-0.08,-1.11l-0.15,-1.47c-0.03,-0.49 -0.08,-0.95 -0.1,-1.47l-0.26,-1.21l-1.15,-0.57c0.85,-0.59 1.69,-1.18 2.54,-1.75l1.44,-1l1.26,-0.77l1.18,0l0.38,-1.11c1.1,-2.55 2.46,-4.84 3.87,-7.21l0.85,-1.47l0.82,-1.39l0.74,-1.26l0.9,-1c1.38,-0.39 1.38,-0.39 2.92,-0.57l1.33,-0.31c1.74,-0.33 3.38,-0.36 5.18,-0.36" fill="#ff941a" fill-rule="nonzero" id="svg_16"/>
   <path d="m417.78,177.99c4.64,1.16 8.1,3.48 11.54,6.77c2.28,2.52 4.28,5.18 5.36,8.45c0.51,6.75 0.51,6.75 -0.44,9.4c-0.59,0.9 -0.59,0.9 -1.9,2.29l-1.1,1.31c-1.95,1.62 -3.74,2.01 -6.2,2.45c-1.79,0.15 -3.18,0.15 -4.92,-0.26c-1.92,-1.52 -3.26,-3.3 -4.67,-5.25l-1.44,-1.7c-0.9,-1.24 -0.9,-1.24 -1.49,-2.99l-1.74,-1.18c-0.59,-1 -1.15,-2.03 -1.72,-3.06c-0.79,-1.31 -1.85,-2.27 -2.95,-3.35c-0.59,-0.98 -1.15,-1.96 -1.74,-2.94l-1.03,-0.82l-0.72,-0.93c-0.08,-1.65 -0.08,-1.65 0.59,-3.5c4.23,-4.69 8.38,-5.28 14.56,-4.69" fill="#49bd47" fill-rule="nonzero" id="svg_17"/>
   <path d="m645.05,328.24c3.03,0.98 5.95,2.34 8.15,4.69c1.56,2.55 2.72,5.05 3.49,7.93c0.05,3.37 -0.56,6.15 -2.13,9.14c-1.95,2.37 -4,4.46 -6.79,5.82c-2.97,0.95 -6.03,0.8 -9.13,0.49c-2.38,-0.62 -3.97,-1.7 -5.79,-3.35c-2.15,-2.27 -3.64,-4.51 -4.46,-7.55c-0.49,-2.96 -0.15,-5.67 0.77,-8.52c1.15,-2.58 2.67,-4.4 4.87,-6.15c3.41,-2.24 7,-3.12 11.02,-2.5" fill="#24b223" fill-rule="nonzero" id="svg_18"/>
   <path d="m68.11,328.24c3.15,1 5.64,2.52 7.87,4.94c1.36,1.83 2.2,3.32 2.62,5.59c0.33,2.99 0.38,5.77 -0.49,8.65c-1.15,2.6 -2.49,4.48 -4.72,6.26c-2.28,1.52 -4.31,2.45 -7.05,2.78c-3.08,0.18 -5.69,-0.41 -8.51,-1.67c-2.36,-1.39 -3.95,-3.19 -5.46,-5.49c-1.26,-2.34 -1.69,-4.35 -1.95,-6.98c0.13,-2.73 0.69,-5.2 1.95,-7.65c1.9,-2.42 3.95,-4.22 6.56,-5.85c3.13,-0.82 5.97,-1 9.18,-0.59" fill="#ff941a" fill-rule="nonzero" id="svg_19"/>
   <path d="m421.27,175.65c5.23,2.37 9.28,5.23 12.67,9.84c1.79,2.65 2.9,5.2 3.67,8.29l0.38,1.52c0.59,4.61 0,8.73 -1.56,13.11c-2.23,4.53 -5.2,8.19 -9.33,11.1c-4.87,2.91 -9.69,4.79 -15.41,4.89c-5.85,0 -10.74,-0.72 -16.02,-3.43c-4.28,-2.55 -7.61,-5.67 -10.26,-9.94c-2.18,-4.09 -3.46,-8.37 -3.31,-13.06c0.64,-5.61 2.87,-10.2 6.08,-14.78c3.33,-3.79 8,-6.44 12.72,-8.11c6.56,-2.19 13.92,-1.78 20.38,0.57m-27.77,4.02l-0.79,0.67l0,1.16l-1.03,0.46c-2.03,1.11 -3.23,2.63 -4.62,4.46c-0.87,1.47 -0.87,1.47 -0.79,3.14c0.41,1.93 0.9,3.63 1.79,5.41l1.15,0l0,1.16l2.92,1.16l0,1.18l1.15,0l0,1.75l1.18,0l-1.21,1.8c-0.92,1.62 -1.13,2.37 -1.26,4.3c0.95,2.83 2.56,4.76 4.79,6.77c1.26,0.77 2.15,1.13 3.64,1.31l1.33,-0.03l1.36,0.03c1.41,-0.08 1.41,-0.08 2.97,-1.31l1.18,0l0,2.32l1.15,0l0,1.18l1.18,0l0.56,2.34l1.18,0l0,1.16l1.15,0.59l0.59,1.73c3.79,0.39 6.49,-0.49 9.97,-2.03c2.36,-1.21 4.36,-2.6 6.33,-4.38l1.08,-0.95c1.03,-1 1.77,-1.85 2.44,-3.14c0.1,-1.83 -0.15,-3.48 -0.59,-5.25l-1.15,0l0.74,-0.88c1.62,-2.06 2.64,-3.73 3.08,-6.36c0.1,-3.32 -0.1,-6.26 -1.46,-9.32c-2.2,-3.76 -5.05,-6.77 -8.77,-9.06c-3.97,-2.09 -7.69,-3.61 -12.26,-3.61l-0.56,-2.34c-6.97,-0.41 -12.56,0.8 -18.46,4.58" fill="#229422" fill-rule="nonzero" id="svg_20"/>
   <path d="m455.65,218.94l0.59,1.75c-0.59,1.13 -0.59,1.13 -1.41,2.34c-0.85,1.16 -0.85,1.16 -1.51,2.32l0,1.75l1.18,-0.59l0,2.94l2.33,-1.16l0,4.66l1.74,-0.59l0,4.69l1.74,-0.59l0.59,1.18l1.15,-0.59l0.59,1.18l1.15,-0.59l-0.03,1.29c0.03,1.6 0.31,2.99 0.62,4.56l0,2.34l1.18,0.57c-0.64,1.7 -1.36,2.52 -2.69,3.79c-0.67,0.52 -1.33,1.03 -1.97,1.55c-0.54,0.44 -0.54,0.44 -1.08,0.85c-4.31,3.3 -9.13,6.21 -14.08,8.45l-1.18,0l0,-1.16l1.18,-0.59l0,-2.34l-1.74,0l0,-4.09l-2.33,1.18l0,-4.69l-1.74,0l0,-2.34l-1.77,0l0,-4.09l-1.74,0l-1.74,-0.59l0,-1.75l1.15,-0.57l0.59,-1.75c1.1,-0.72 1.1,-0.72 2.51,-1.47c6.56,-3.81 12.02,-9.55 15.82,-16.12c0.28,-0.57 0.59,-1.13 0.9,-1.7" fill="#ff941a" fill-rule="nonzero" id="svg_21"/>
   <path d="m82.11,361.59c1.77,-0.13 1.77,-0.13 4.05,-0.13l2.23,0l2.82,0.05l8.95,0.08l0,19.29l-34.38,0l2.92,-5.25l1.15,0l0.21,-1.06l0.28,-1.36l0.26,-1.36c0.54,-1.88 1.13,-3.35 2.18,-5c1.38,-0.88 2.62,-1.55 4.13,-2.19c2.79,-1.24 2.79,-1.24 5.2,-3.06" fill="#24b223" fill-rule="nonzero" id="svg_22"/>
   <path d="m298.3,178.59c1.9,0.8 3.2,1.47 4.67,2.91c-0.08,1.39 -0.08,1.39 -0.59,2.94c-0.74,0.8 -1.54,1.57 -2.31,2.34c-0.41,0.67 -0.82,1.36 -1.18,2.09c-1.15,2.01 -1.15,2.01 -2.41,3.14c-1.08,0.62 -1.08,0.62 -2.26,0.62l-0.36,1.21c-0.9,1.93 -2.05,3.27 -3.46,4.84c-0.95,1.06 -0.95,1.06 -2,2.7l-1.15,0l-0.46,1c-0.87,1.62 -1.79,2.91 -3.05,4.27c-1.62,0.93 -2.72,1.16 -4.59,1.24c-1.97,-0.72 -2.67,-1.36 -4.03,-2.94c-1.23,-1.42 -1.85,-2.34 -2.46,-4.15c-0.38,-2.88 -0.33,-5.49 0.62,-8.27c1.87,-3.97 4.03,-7.24 7.54,-9.86c5.69,-3.81 10.69,-5.12 17.49,-4.09" fill="#ffb078" fill-rule="nonzero" id="svg_23"/>
   <path d="m333.27,131.23l26.23,0l0.59,2.34l1.74,-1.16c0.87,1.13 1.69,2.21 2.33,3.5l1.15,-0.59l0,4.69l1.74,-0.59l0,2.94l1.77,-0.59l-0.1,1.29c0.1,1.8 0.46,2.94 1.26,4.56c0.56,0.8 1.13,1.57 1.74,2.34l1.18,-0.59l0,4.69l1.74,-0.59l0,2.91l1.74,-0.57l-0.08,1.26c0.08,1.78 0.51,2.99 1.26,4.58l1.15,-0.59c0.1,1.39 0.1,1.39 0,2.94c-1.9,1.26 -2.87,1.47 -5.1,1.67c-1.9,-0.03 -1.9,-0.03 -3.64,-0.52c-1.41,-1.6 -2.2,-3.19 -3.13,-5.1c-1.46,-2.94 -3.49,-5.28 -5.62,-7.75l-1.18,-1.44c-5.74,-6.77 -12.74,-11.43 -20.51,-15.55c-1.44,-0.77 -2.85,-1.55 -4.23,-2.34l-2.05,-1.13l0,-0.59zm0,0" fill="#ff6106" fill-rule="nonzero" id="svg_24"/>
   <path d="m617.07,334.08l1.18,1.18c-0.18,1.18 -0.36,2.34 -0.59,3.5c-0.44,5.46 0.21,10.17 2.33,15.19c2.05,4.12 4.44,7.08 8.15,9.81c1.21,0.8 1.21,0.8 2.92,1.31l0,1.16l1.74,0c-0.9,3.43 -2.56,6.54 -4.67,9.37c-1.1,0.77 -1.1,0.77 -2.33,1.16c-1.69,-0.13 -2.79,-0.52 -4.26,-1.34c-6.79,-4.79 -11.31,-9.99 -14.97,-17.38c-0.67,-1.52 -1.15,-2.83 -1.46,-4.48c0.46,-3.04 2.15,-5.23 3.79,-7.78c0.59,-1 1.18,-1.98 1.74,-2.96c3.49,-5.82 3.49,-5.82 5.26,-8.16l1.15,-0.59zm0,0" fill="#ff941a" fill-rule="nonzero" id="svg_25"/>
   <path d="m353.68,154.04c7.59,7.13 13.08,16.4 16.31,26.29l0.59,3.5l-25.08,0l-4.08,-8.76l2.82,-1.67c1.69,-1.21 2.79,-2.01 3.72,-3.89c0.28,-1 0.54,-2.03 0.74,-3.04c0.38,-1.67 1.15,-2.83 2.05,-4.25c0.49,-1.21 0.92,-2.45 1.36,-3.66c0.38,-1.03 0.38,-1.03 0.97,-2.21l-1.18,-1.16l1.77,-1.16zm-302.47,166.62l1.15,0c0.87,1.42 1.28,2.73 1.77,4.33l0,2.09c-1.49,1.36 -1.49,1.36 -2.49,2.06c-2.13,1.8 -3.41,4.17 -4.51,6.72c-1,3.53 -1.41,6.98 -0.87,10.64c0.82,3.22 2.31,6.03 4.36,8.65c2.46,2.37 5.41,4.38 8.74,5.25c2.72,0.49 5.44,0.85 8.15,1.18l0,7c-4.87,0.28 -9.56,-0.72 -14.05,-2.7c-4.49,-2.47 -8.2,-6.28 -10.9,-10.64c-2.62,-4.87 -3.2,-9.5 -3.13,-14.99c0.28,-4.74 1.92,-8.45 4.46,-12.44c2.05,-3.04 4.08,-5.31 7.31,-7.16" fill="#24b223" fill-rule="nonzero" id="svg_26"/>
   <path d="m668.07,304.26c4.56,-0.03 9.13,-0.03 13.69,0.03c-1.36,1.42 -2.67,2.32 -4.41,3.27c-5.59,3.32 -9.64,7.57 -13.08,13.11l-0.87,1.6l-0.87,1.31c-1.54,0.39 -1.54,0.39 -3.49,0c-1.33,-0.8 -2.56,-1.67 -3.82,-2.58c-2.26,-1.47 -4.72,-2.37 -7.26,-3.27c1.51,-3.24 3.36,-6.31 5.23,-9.35l1,-1.91l1.33,-1.6c1.64,-0.41 2.79,-0.54 4.41,-0.52l1.36,-0.05c2.26,-0.05 4.51,-0.03 6.77,-0.05m-351.11,-101.7l1.74,0c0.13,2.68 0.18,4.22 -0.87,6.72l-0.87,1.47l3.49,0c-0.54,1.98 -1.44,3.37 -2.77,4.89c-3.51,3.35 -8.59,5.79 -13.26,7.06c-5.28,0.88 -10.92,0.77 -16.02,-0.85l-1.15,-1.75c1.05,-1.75 1.05,-1.75 2.31,-3.5l1.77,0l0,-1.18c1.64,-1.26 3.28,-2.19 5.23,-2.91c2.1,-0.28 4.23,-0.31 6.36,-0.28c1.23,0 2.33,-0.05 3.56,-0.31c1.9,-1.16 3.33,-2.78 4.9,-4.35c1.18,-1.18 2.38,-2.32 3.62,-3.43l1,-0.9l0.97,-0.67zm0,0" fill="#ff941a" fill-rule="nonzero" id="svg_27"/>
   <path d="m504.88,402.33c0.82,-0.03 1.62,-0.03 2.44,0l1.26,0c3.15,0.08 6.05,0.36 8.87,1.93c1.74,1.47 1.74,1.47 2.9,2.91c1.08,3.22 0.87,6.62 0.59,9.94c-0.72,2.01 -1.92,3.14 -3.49,4.58c-1.59,0.93 -3,1.24 -4.82,1.34c-1.54,0.03 -3.05,0.05 -4.59,0.05l-1.62,0l-1.56,0l-1.41,0.03l-1.15,-0.15l-1.18,-1.16c-0.23,-2.58 -0.18,-5.18 -0.18,-7.78c0,-1.29 0,-2.58 -0.03,-3.86c0,-0.82 0,-1.62 0,-2.45l0,-2.27l0.21,-1.78c1.74,-1.16 1.74,-1.16 3.77,-1.34m1.49,5.43c-0.54,2.24 -0.64,4.33 -0.64,6.62l0.03,1.88l0.03,1.44c1.33,0.05 2.64,0.08 3.97,0.1l2.23,0.08c1.9,-0.03 1.9,-0.03 3.05,-0.93c0.9,-1.42 1.13,-2.86 1.28,-4.51c0.03,-1.31 0.03,-1.31 -0.79,-2.88l-1,-1.21c-1.85,-0.62 -3.15,-0.64 -5.08,-0.64l-1.74,0.03l-1.33,0.03zm-49.54,-5.25c2.87,0.52 4.72,1.31 6.97,3.22c1.18,1.44 1.18,1.44 1.77,3.19c0.51,6.75 0.51,6.75 -0.46,9.45c-1.08,1.67 -2.51,2.99 -4.2,4.02c-2.72,0.82 -5.44,0.7 -8.23,0.7l-1.64,0l-1.54,0l-1.41,0.03l-1.18,-0.15l-1.15,-1.16c-0.13,-1.8 -0.13,-1.8 -0.13,-4.09l0.03,-1.21c0,-1.29 0,-2.55 0.03,-3.84c0,-0.88 0,-1.73 0.03,-2.6c0,-2.14 0.03,-4.25 0.05,-6.39c3.44,-1.88 7.26,-1.42 11.08,-1.16m-5.85,5.25l-0.56,0.59c-0.05,1.57 -0.05,3.14 -0.05,4.71l0,1.34c0.03,1.08 0.03,2.19 0.05,3.3c1.31,0.05 2.64,0.08 3.95,0.1l2.23,0.08c1.92,-0.03 1.92,-0.03 3.08,-0.93c0.9,-1.42 1.1,-2.86 1.26,-4.51c0.03,-1.31 0.03,-1.31 -0.77,-2.88l-1,-1.21c-1.82,-0.62 -3.13,-0.67 -5.03,-0.67l-1.74,0l-1.41,0.08zm-382.87,-79.52c3.15,1 5.64,2.52 7.87,4.94c1.36,1.83 2.2,3.32 2.62,5.59c0.23,3.58 0.36,6.64 -1.15,9.94l-0.59,-1.75l-1.15,0l-0.59,-2.34c-1.41,0.49 -1.41,0.49 -2.92,1.18l-0.77,0.9l-0.97,0.85c-1.13,0.15 -2.28,0.33 -3.41,0.39c-1.51,0.23 -2.77,0.75 -4.18,1.36l0.64,-1.11c1.62,-3.01 2.54,-5.41 2.72,-8.86c0.15,-1.16 0.15,-1.16 1.13,-2.76l0.77,-1.31c-0.23,-1.6 -0.23,-1.6 -1.15,-2.94c-0.97,-0.85 -0.97,-0.85 -2.33,-1.16c-1.95,-0.33 -1.95,-0.33 -4.08,0c-2.46,1.11 -4.28,2.5 -6.1,4.51c-0.97,1.44 -1.46,2.21 -1.62,3.94c-0.05,1.7 -0.05,3.32 0.13,5c0.85,1.57 0.85,1.57 2.33,2.34c1.82,0.75 1.82,0.75 3.49,1.16l-1.15,2.34l1.15,1.18l-0.56,1.16l1.74,1.75l-1.18,0.59c-2.67,-1.65 -4.54,-3.24 -6.41,-5.85c-1.18,-2.32 -1.72,-4.38 -1.95,-6.98c0.13,-2.73 0.69,-5.2 1.95,-7.65c1.9,-2.42 3.95,-4.22 6.56,-5.85c3.13,-0.82 5.97,-1 9.18,-0.59m243.14,-151.92c4.72,2.58 8.61,6.34 11.44,10.92c1.33,2.5 2.36,4.84 2.54,7.73l-0.1,1.16l-1.18,-0.59c-1.64,-0.08 -3.31,-0.15 -4.95,-0.18l-1.49,-0.03c-1.56,-0.05 -3.13,-0.08 -4.69,-0.13l-3.18,-0.05c-2.62,-0.08 -5.23,-0.13 -7.82,-0.18c0.36,-1 0.72,-1.96 1.15,-2.94l1.23,-0.77l1.1,-0.98l-0.15,-2.27c-0.05,-1.24 -0.05,-1.24 0.15,-2.42c2.41,-2.47 6.1,-3.58 9.33,-4.66c-3.67,-2.55 -7.23,-4.43 -11.67,-5.28c-4.28,-0.26 -8.54,-0.13 -12.82,0l1.18,-1.73c6.51,-1.8 13.87,-0.36 19.92,2.39m346.44,226.03l2.28,-0.03c1.79,0.15 2.79,0.36 4.31,1.34c0.08,1.39 0.08,1.39 0,2.94l-1.15,1.16c-1.1,0.18 -1.1,0.18 -2.41,0.23l-1.41,0.08l-1.51,0.05l-1.49,0.08c-1.23,0.05 -2.46,0.1 -3.67,0.15l-0.59,1.16l1.79,0.18c0.82,0.08 1.62,0.18 2.38,0.26l1.21,0.1c2.05,0.26 3.33,0.62 5.08,1.78c1.21,1.18 1.21,1.18 1.77,2.37c0.18,2.45 0.23,4.07 -0.64,6.34c-1.1,1.26 -1.1,1.26 -2.56,1.91c-2.62,0.67 -5.03,0.7 -7.72,0.67l-1.51,0l-1.46,0l-1.31,0l-1.1,-0.15l-1.18,-1.16c-0.18,-1.47 -0.18,-1.47 0,-2.94c1.77,-1.16 1.77,-1.16 2.92,-1.29l1.31,0.03l1.41,0l1.46,0.03l1.51,0.03c1.21,0 2.41,0.03 3.64,0.05l-0.59,-1.75l-1.41,-0.08c-2.72,-0.15 -5.13,-0.33 -7.69,-1.29c-1.38,-0.98 -1.38,-0.98 -2.2,-1.96c-0.54,-2.03 -0.67,-3.97 -0.36,-6.03c0.92,-1.7 0.92,-1.7 2.33,-2.94c2.92,-1.03 5.49,-1.34 8.56,-1.31m-504.59,-0.03c0.87,0 1.77,0 2.64,0.03l1.33,-0.03c2.46,0.03 4.41,0.15 6.61,1.34c1.31,1.21 2.1,1.98 2.9,3.5c0.38,1.75 0.23,2.86 0,4.69c-0.79,1.7 -1.59,2.76 -2.9,4.09l1.44,1.29l1.46,1.62c0.26,1.57 0.26,1.57 0,2.94l-1.15,1.16c-1.62,0.03 -1.62,0.03 -3.51,-0.57c-1.31,-1.18 -2.36,-2.52 -3.41,-3.97l-0.87,-1.11c-1.26,-1.6 -2.05,-2.76 -2.41,-4.76l0.28,-1.29l1.77,-1.16c1.36,-0.05 2.72,-0.05 4.08,0l-0.59,-1.75l-6.41,0l0.03,2.63l0,3.4l0.03,1.73l0,1.65l0,1.55c-0.05,1.31 -0.05,1.31 -0.64,3.09c-1.67,0.36 -1.67,0.36 -3.49,0.57l-1.18,-1.16c-0.23,-2.58 -0.18,-5.18 -0.18,-7.78c0,-1.29 0,-2.58 -0.03,-3.86c0,-0.82 0,-1.62 0,-2.45l0,-2.27l0.21,-1.78c1.77,-1.16 1.77,-1.16 4,-1.34m436,0.18c1.41,0.26 1.41,0.26 2.92,1.16c1.1,1.26 2.08,2.47 3.05,3.84l1.54,2.09l1.23,1.67l0.59,0.59c0.05,-0.75 0.05,-0.75 0.1,-1.47l0.15,-1.93c0.05,-0.64 0.08,-1.26 0.13,-1.91c0.21,-1.73 0.21,-1.73 0.77,-3.48l4.08,0c1.26,2.52 0.69,5.9 0.69,8.68c0,1.26 0.03,2.5 0.03,3.76c0,0.8 0,1.57 0,2.37l0.03,2.19l-0.15,1.73l-1.15,1.16c-1.38,0.23 -1.38,0.23 -2.92,0c-1.21,-1 -1.21,-1 -2.33,-2.37l-1.21,-1.44c-1.41,-1.8 -2.74,-3.66 -4.03,-5.54l-0.59,0.59c-0.03,1.78 0.03,3.53 0.1,5.33l-0.1,1.67l-1.18,1.75c-1.44,0.18 -1.44,0.18 -2.9,0l-1.18,-1.16c-0.13,-1.8 -0.13,-1.8 -0.1,-4.09l0,-1.21c0,-1.29 0.03,-2.55 0.05,-3.84c0,-0.88 0,-1.73 0,-2.6c0,-2.14 0.03,-4.25 0.05,-6.39c1.08,-0.59 1.08,-0.59 2.33,-1.16m-216.19,0c1.41,0.26 1.41,0.26 2.9,1.16c1.13,1.26 2.1,2.47 3.05,3.84l1.56,2.09l1.23,1.67l0.56,0.59c0.05,-0.75 0.05,-0.75 0.13,-1.47l0.13,-1.93c0.05,-0.64 0.1,-1.26 0.15,-1.91c0.18,-1.73 0.18,-1.73 0.77,-3.48c1.67,-0.05 1.67,-0.05 3.49,0l1.18,1.18c0.13,1.73 0.13,1.73 0.13,3.91l0.03,1.16c0,0.82 0,1.62 -0.03,2.42c0,1.26 0,2.5 0.03,3.76c0,0.8 0,1.57 -0.03,2.37l0,2.19l-0.13,1.73l-1.18,1.16c-1.38,0.23 -1.38,0.23 -2.9,0c-1.21,-1 -1.21,-1 -2.33,-2.37l-1.21,-1.44c-1.41,-1.8 -2.77,-3.66 -4.05,-5.54l-0.59,0.59c-0.03,1.78 0.05,3.53 0.1,5.33l-0.1,1.67l-1.15,1.75c-1.46,0.18 -1.46,0.18 -2.92,0l-1.15,-1.16c-0.15,-1.8 -0.15,-1.8 -0.13,-4.09l0,-1.21c0.03,-1.29 0.03,-2.55 0.05,-3.84c0,-0.88 0,-1.73 0.03,-2.6c0,-2.14 0.03,-4.25 0.05,-6.39c1.08,-0.59 1.08,-0.59 2.33,-1.16" fill="#ff6106" fill-rule="nonzero" id="svg_28"/>
   <path d="m411.37,177.99c4.31,-0.39 7.74,0.13 11.69,1.96c4.44,2.55 7.69,6.05 10.41,10.35c1.26,2.32 1.31,4.33 1.33,6.93l0.05,2.14c-0.18,2.01 -0.18,2.01 -1,3.73l-0.92,1.21l-1.18,0c-0.85,-0.98 -0.85,-0.98 -1.85,-2.34c-1.72,-2.27 -3.51,-4.43 -5.41,-6.57c-0.74,-0.85 -1.46,-1.75 -2.18,-2.63c-1,-1.34 -1,-1.34 -2.13,-2.39c-1.28,-1.31 -2.41,-2.68 -3.54,-4.12c-1.36,-1.7 -2.69,-3.37 -4.13,-5l-1.15,-1.52l0,-1.75zm0,0" fill="#7ec77d" fill-rule="nonzero" id="svg_29"/>
   <path d="m272.66,200.81l1.18,1.75c1.62,2.21 3.03,3.84 5.46,5.18c2.31,0.72 4.36,1.03 6.77,1.26l-1.67,1.96l-0.95,1.11c-0.67,0.75 -1.33,1.49 -2.05,2.19c4.69,-0.15 8.23,-1.7 12.26,-4.09l1.51,-1.29l1.38,-1.06l2.33,0l0,-1.16l4.08,0l0,-1.18c1.54,-0.77 2.79,-0.67 4.51,-0.72c2.51,-0.15 2.51,-0.15 4.79,-1.13c0.79,-0.72 1.56,-1.47 2.36,-2.24c1.67,-0.18 1.67,-0.18 2.9,0l0.59,1.18c-1.05,0.88 -2.08,1.75 -3.13,2.63l-1.77,1.47l-1.51,1.16l-1.15,0l-0.59,1.75c-1.21,1.26 -2.03,2.09 -3.49,2.94c-1.67,0.36 -3.28,0.36 -4.97,0.31c-1.67,0 -3.31,-0.03 -4.95,0.28c-1.92,1.11 -1.92,1.11 -3.49,2.32l-1.74,0l0,1.18l-1.77,0c-0.62,1.55 -1.21,3.06 -1.74,4.66c-3.92,-1.13 -6.79,-3.19 -9.9,-5.85c-2.62,-2.78 -4.69,-5.69 -5.82,-9.35c-0.15,-2.21 -0.15,-2.21 0,-4.09l0.56,-1.16zm0,0" fill="#ff941a" fill-rule="nonzero" id="svg_30"/>
   <path d="m279.66,402.51c1.41,0.26 1.41,0.26 2.92,1.16c1.1,1.26 2.08,2.47 3.05,3.84l1.54,2.09l1.23,1.67l0.59,0.59c0.03,-0.75 0.03,-0.75 0.1,-1.47l0.15,-1.93c0.03,-0.64 0.08,-1.26 0.13,-1.91c0.18,-1.73 0.18,-1.73 0.77,-3.48l4.08,0c1.26,2.52 0.69,5.9 0.69,8.68c0,1.26 0.03,2.5 0.03,3.76c0,0.8 0,1.57 0,2.37l0,2.19l-0.13,1.73l-1.15,1.16c-1.41,0.23 -1.41,0.23 -2.92,0c-1.21,-1 -1.21,-1 -2.33,-2.37l-1.21,-1.44c-0.97,-1.24 -1.9,-2.5 -2.79,-3.79c-1.05,-1.78 -1.05,-1.78 -2.41,-2.34l0.28,1.47c0.33,2.32 0.41,4.38 0.31,6.72l-1.18,1.75c-1.46,0.18 -1.46,0.18 -2.9,0l-1.18,-1.16c-0.13,-1.8 -0.13,-1.8 -0.1,-4.09l0,-1.21c0,-1.29 0.03,-2.55 0.03,-3.84c0.03,-0.88 0.03,-1.73 0.03,-2.6c0,-2.14 0.03,-4.25 0.05,-6.39c1.08,-0.59 1.08,-0.59 2.33,-1.16m257.45,0.64c2.18,0.88 3.85,2.27 5.38,4.02c0.82,1.34 1.15,2.27 1.36,3.84c0.08,4.89 0.08,4.89 -1.15,7.24c-1.46,1.91 -2.77,2.96 -4.87,4.15c-2.18,0.72 -4.13,0.88 -6.41,0.57c-1.74,-0.54 -3.2,-1.26 -4.67,-2.34c-1.38,-1.75 -2.2,-3.12 -2.9,-5.25c-0.26,-2.21 -0.36,-4.33 0.41,-6.44c1.21,-2.29 2.64,-3.86 4.82,-5.25c2.9,-1.24 5.05,-1.31 8.03,-0.52m-6.79,5.77c-1.26,1.57 -1.26,1.57 -1.49,2.91c-0.1,1.42 -0.1,1.42 0.26,3.53c0.77,1.55 0.77,1.55 2.33,2.34c1.62,0.31 3.05,0.31 4.67,0c1.49,-0.88 1.49,-0.88 2.33,-2.34c0.62,-1.7 0.62,-1.7 0.56,-3.5c-0.64,-1.62 -0.64,-1.62 -1.74,-2.94c-1.64,-1.26 -1.64,-1.26 -3.41,-1.42c-1.9,0.13 -1.9,0.13 -3.51,1.42m-169.2,-5.77c2.18,0.88 3.85,2.27 5.38,4.02c0.82,1.34 1.15,2.27 1.36,3.84c0.05,4.89 0.05,4.89 -1.15,7.24c-1.46,1.91 -2.77,2.96 -4.87,4.15c-2.2,0.72 -4.15,0.88 -6.41,0.57c-1.74,-0.54 -3.2,-1.26 -4.67,-2.34c-1.38,-1.75 -2.2,-3.12 -2.92,-5.25c-0.26,-2.21 -0.33,-4.33 0.44,-6.44c1.21,-2.29 2.64,-3.86 4.82,-5.25c2.87,-1.24 5.05,-1.31 8.03,-0.52m-6.79,5.77c-1.28,1.57 -1.28,1.57 -1.49,2.91c-0.13,1.42 -0.13,1.42 0.26,3.53c0.77,1.55 0.77,1.55 2.33,2.34c1.62,0.31 3.03,0.31 4.67,0c1.49,-0.88 1.49,-0.88 2.33,-2.34c0.62,-1.7 0.62,-1.7 0.56,-3.5c-0.67,-1.62 -0.67,-1.62 -1.74,-2.94c-1.64,-1.26 -1.64,-1.26 -3.44,-1.42c-1.9,0.13 -1.9,0.13 -3.49,1.42m-254.86,-5.77c2.18,0.88 3.85,2.27 5.36,4.02c0.85,1.34 1.15,2.27 1.36,3.84c0.08,4.89 0.08,4.89 -1.13,7.24c-1.49,1.91 -2.79,2.96 -4.9,4.15c-2.18,0.72 -4.13,0.88 -6.41,0.57c-1.72,-0.54 -3.18,-1.26 -4.67,-2.34c-1.38,-1.75 -2.2,-3.12 -2.9,-5.25c-0.26,-2.21 -0.36,-4.33 0.41,-6.44c1.23,-2.29 2.64,-3.86 4.82,-5.25c2.9,-1.24 5.05,-1.31 8.05,-0.52m-6.79,5.77c-1.28,1.57 -1.28,1.57 -1.51,2.91c-0.1,1.42 -0.1,1.42 0.26,3.53c0.79,1.55 0.79,1.55 2.33,2.34c1.62,0.31 3.05,0.31 4.67,0c1.49,-0.88 1.49,-0.88 2.33,-2.34c0.64,-1.7 0.64,-1.7 0.59,-3.5c-0.67,-1.62 -0.67,-1.62 -1.77,-2.94c-1.62,-1.26 -1.62,-1.26 -3.41,-1.42c-1.9,0.13 -1.9,0.13 -3.49,1.42m-15.95,-5.77c2.18,0.88 3.85,2.27 5.38,4.02c0.82,1.34 1.15,2.27 1.36,3.84c0.05,4.89 0.05,4.89 -1.15,7.24c-1.46,1.91 -2.79,2.96 -4.87,4.15c-2.18,0.72 -4.15,0.88 -6.41,0.57c-1.74,-0.54 -3.2,-1.26 -4.67,-2.34c-1.41,-1.75 -2.2,-3.12 -2.92,-5.25c-0.26,-2.21 -0.33,-4.33 0.41,-6.44c1.26,-2.29 2.67,-3.86 4.85,-5.25c2.9,-1.24 5.05,-1.31 8.03,-0.52m-6.79,5.77c-1.26,1.57 -1.26,1.57 -1.49,2.91c-0.13,1.42 -0.13,1.42 0.26,3.53c0.77,1.55 0.77,1.55 2.33,2.34c1.62,0.31 3.05,0.31 4.67,0c1.49,-0.88 1.49,-0.88 2.31,-2.34c0.64,-1.7 0.64,-1.7 0.59,-3.5c-0.67,-1.62 -0.67,-1.62 -1.74,-2.94c-1.64,-1.26 -1.64,-1.26 -3.41,-1.42c-1.92,0.13 -1.92,0.13 -3.51,1.42m329.78,-6.41c1.33,0.36 1.33,0.36 2.92,1.16c1.03,1.47 1.03,1.47 1.92,3.35l1.03,2.01l0.51,1.06c0.51,1.08 1.03,2.14 1.56,3.19c2.49,5.1 2.49,5.1 2.72,7.21l-0.18,1.31l-1.15,1.16c-1.72,0.15 -1.72,0.15 -3.9,0.15l-1.18,0c-0.79,0 -1.62,0 -2.41,0c-1.26,0 -2.49,0 -3.74,0c-0.79,0 -1.56,0 -2.36,0l-2.18,0l-1.72,-0.15l-1.15,-1.16c0.31,-3.81 2.03,-6.93 3.67,-10.3l0.87,-1.85l0.82,-1.75l0.77,-1.6c0.9,-1.52 1.9,-2.6 3.18,-3.79m0,8.76c-0.38,0.85 -0.77,1.7 -1.15,2.58l-0.67,1.42c-0.56,1.24 -0.56,1.24 -0.51,2.45l6.41,0l-2.9,-6.44l-1.18,0zm-92.66,-8.76c1.33,0.36 1.33,0.36 2.92,1.16c1.03,1.47 1.03,1.47 1.95,3.35l1,2.01l0.51,1.06c0.51,1.08 1.03,2.14 1.56,3.19c2.49,5.1 2.49,5.1 2.72,7.21l-0.18,1.31l-1.15,1.16c-1.72,0.15 -1.72,0.15 -3.9,0.15l-1.15,0c-0.82,0 -1.64,0 -2.44,0c-1.26,0 -2.49,0 -3.74,0c-0.77,0 -1.56,0 -2.36,0l-2.18,0l-1.72,-0.15l-1.15,-1.16c0.31,-3.81 2.03,-6.93 3.67,-10.3l0.87,-1.85l0.82,-1.75l0.77,-1.6c0.9,-1.52 1.9,-2.6 3.18,-3.79m0,8.76c-0.38,0.85 -0.77,1.7 -1.15,2.58l-0.67,1.42c-0.59,1.24 -0.59,1.24 -0.51,2.45l6.41,0l-2.9,-6.44l-1.18,0zm-55.36,-8.76c1.33,0.36 1.33,0.36 2.92,1.16c1.03,1.47 1.03,1.47 1.92,3.35l1.03,2.01l0.49,1.06c0.51,1.08 1.05,2.14 1.59,3.19c2.49,5.1 2.49,5.1 2.69,7.21l-0.15,1.31l-1.15,1.16c-1.74,0.15 -1.74,0.15 -3.9,0.15l-1.18,0c-0.79,0 -1.62,0 -2.44,0c-1.23,0 -2.49,0 -3.72,0c-0.79,0 -1.59,0 -2.36,0l-2.18,0l-1.74,-0.15l-1.15,-1.16c0.31,-3.81 2.05,-6.93 3.69,-10.3l0.85,-1.85l0.85,-1.75l0.77,-1.6c0.9,-1.52 1.87,-2.6 3.18,-3.79m0,8.76c-0.38,0.85 -0.79,1.7 -1.15,2.58l-0.67,1.42c-0.59,1.24 -0.59,1.24 -0.51,2.45l6.41,0l-2.92,-6.44l-1.15,0zm-72.84,-8.76c1.33,0.36 1.33,0.36 2.92,1.16c1,1.47 1,1.47 1.92,3.35l1,2.01l0.51,1.06c0.51,1.08 1.05,2.14 1.56,3.19c2.51,5.1 2.51,5.1 2.72,7.21l-0.15,1.31l-1.15,1.16c-1.74,0.15 -1.74,0.15 -3.9,0.15l-1.18,0c-0.79,0 -1.62,0 -2.44,0c-1.26,0 -2.49,0 -3.72,0c-0.79,0 -1.59,0 -2.38,0l-2.15,0l-1.74,-0.15l-1.15,-1.16c0.31,-3.81 2.05,-6.93 3.69,-10.3l0.85,-1.85l0.85,-1.75l0.77,-1.6c0.87,-1.52 1.87,-2.6 3.18,-3.79m0,8.76c-0.38,0.85 -0.79,1.7 -1.18,2.58l-0.64,1.42c-0.59,1.24 -0.59,1.24 -0.51,2.45l6.41,0l-2.92,-6.44l-1.15,0zm390.75,-8.91l1.69,-0.03l1.9,0l1.95,0.03l1.95,-0.03l1.87,0l1.72,0.03c1.44,0.15 1.44,0.15 3.2,1.31c0.18,1.47 0.18,1.47 0,2.94l-1.18,1.16c-1.15,0.18 -1.15,0.18 -2.54,0.23l-1.49,0.08l-1.59,0.05l-1.56,0.08c-1.31,0.05 -2.59,0.1 -3.9,0.15l0,8.76l2.23,0.08l2.92,0.15l1.46,0.05l1.41,0.08l1.31,0.03c1.15,0.21 1.15,0.21 2.92,1.36c0.18,1.47 0.18,1.47 0,2.94l-1.18,1.16c-1.51,0.15 -1.51,0.15 -3.38,0.15l-2.05,0l-2.13,0l-2.15,0l-2.05,0l-1.87,0l-1.51,-0.15l-1.15,-1.16c-0.23,-2.58 -0.21,-5.18 -0.18,-7.78c0,-1.29 -0.03,-2.58 -0.05,-3.86c0,-0.82 0,-1.62 0,-2.45l0,-2.27l0.23,-1.78c1.74,-1.16 1.74,-1.16 3.2,-1.31m60.53,0l1.64,-0.03l1.77,0l1.87,0.03l1.85,-0.03l1.79,0l1.62,0.03c1.54,0.15 2.49,0.54 3.79,1.31c0.1,1.39 0.1,1.39 0,2.94l-1.15,1.16c-1.15,0.18 -1.15,0.18 -2.54,0.23l-1.49,0.08l-1.59,0.05l-1.56,0.08c-1.31,0.05 -2.59,0.1 -3.9,0.15l0.03,1.75l0.03,2.27l0,2.24c-0.05,1.93 -0.05,1.93 -0.64,3.09c0.33,0 0.67,0 1,-0.03c1.49,-0.03 2.95,-0.03 4.44,-0.05c0.51,0 1.03,-0.03 1.56,-0.03l1.49,0l1.38,-0.03c1.21,0.13 1.21,0.13 2.95,1.29c0.21,1.47 0.21,1.47 0,2.94l-1.15,1.16c-1.51,0.15 -1.51,0.15 -3.38,0.15l-2.05,0l-2.13,0l-2.15,0l-2.05,0l-1.87,0l-1.51,-0.15l-1.15,-1.16c-0.26,-2.58 -0.21,-5.18 -0.21,-7.78c0.03,-1.29 0,-2.58 0,-3.86c0,-0.82 0,-1.62 0,-2.45l-0.03,-2.27l0.23,-1.78c1.74,-1.16 1.74,-1.16 3.13,-1.31m-158.45,0l1.72,-0.03l1.87,0l1.95,0.03l1.97,-0.03l1.85,0l1.72,0.03c1.46,0.15 1.46,0.15 3.2,1.31c0.18,1.47 0.18,1.47 0,2.94l-1.15,1.16c-1.15,0.18 -1.15,0.18 -2.54,0.23l-1.51,0.08l-1.56,0.05l-1.59,0.08c-1.28,0.05 -2.59,0.1 -3.87,0.15l-0.59,9.35l2.36,-0.05c1.03,0 2.05,0 3.08,-0.03c0.51,0 1.03,-0.03 1.56,-0.03l1.49,0l1.38,-0.03c1.21,0.13 1.21,0.13 2.95,1.29c0.18,1.47 0.18,1.47 0,2.94l-1.15,1.16c-1.51,0.15 -1.51,0.15 -3.38,0.15l-2.05,0l-2.15,0l-2.15,0l-2.03,0l-1.9,0l-1.49,-0.15l-1.18,-1.16c-0.23,-2.58 -0.18,-5.18 -0.18,-7.78c0,-1.29 0,-2.58 -0.03,-3.86c0,-0.82 0,-1.62 0,-2.45l0,-2.27l0.21,-1.78c1.74,-1.16 1.74,-1.16 3.2,-1.31m-339.24,0l1.64,-0.03l1.77,0l1.87,0.03l1.85,-0.03l1.79,0l1.62,0.03c1.54,0.15 2.49,0.54 3.79,1.31c0.1,1.39 0.1,1.39 0,2.94l-1.15,1.16c-1.15,0.18 -1.15,0.18 -2.54,0.23l-1.49,0.08l-1.59,0.05l-1.56,0.08c-1.31,0.05 -2.59,0.1 -3.9,0.15l-0.59,9.35l2.38,-0.05c1,0 2.03,0 3.05,-0.03c0.51,0 1.03,-0.03 1.56,-0.03l1.49,0l1.38,-0.03c1.21,0.13 1.21,0.13 2.95,1.29c0.21,1.47 0.21,1.47 0,2.94l-1.15,1.16c-1.49,0.15 -1.49,0.15 -3.38,0.15l-2.05,0l-2.13,0l-2.15,0l-2.05,0l-1.87,0l-1.51,-0.15l-1.15,-1.16c-0.23,-2.58 -0.21,-5.18 -0.21,-7.78c0.03,-1.29 0,-2.58 0,-3.86c0,-0.82 0,-1.62 0,-2.45l-0.03,-2.27l0.23,-1.78c1.74,-1.16 1.74,-1.16 3.13,-1.31m-16.64,-0.03l1.21,-0.05c2.95,0 5,0.62 7.64,1.98c1.13,1.31 1.13,1.31 1.74,2.91c0.28,2.01 0.28,2.01 0,4.09c-0.85,1.44 -1.69,2.32 -2.92,3.5c-1.72,0.59 -2.92,0.67 -4.72,0.67l-1.59,0l-1.26,-0.08l-0.59,-0.59c-0.13,-1.7 -0.13,-1.7 0,-3.5l1.74,-1.16c1.38,-0.05 2.72,-0.05 4.08,0l-0.56,-1.75l-6.41,0l0.03,2.63l0,3.4l0.03,1.73l0,1.65l0.03,1.55c-0.08,1.31 -0.08,1.31 -0.67,3.09c-1.67,0.36 -1.67,0.36 -3.49,0.57l-1.18,-1.16c-0.13,-1.8 -0.13,-1.8 -0.1,-4.09l0,-1.21c0,-1.29 0.03,-2.55 0.03,-3.84c0.03,-0.88 0.03,-1.73 0.03,-2.6c0.03,-2.14 0.03,-4.25 0.05,-6.39c2.31,-1.29 4.31,-1.36 6.9,-1.34" fill="#ff6106" fill-rule="nonzero" id="svg_31"/>
   <path d="m76.44,319.51c3.67,2.01 6.64,4.2 9.15,7.57c1.31,2.29 2.46,4.61 3.49,7c-2.77,0.33 -5.38,0.46 -8.15,0c-1.38,-1.13 -2.15,-2.34 -3.1,-3.86c-1.38,-1.98 -2.9,-3.01 -5,-4.17c-3.69,-1.47 -8.31,-2.47 -12.28,-2.47l0,-5.85l-1.18,-0.59c5.95,-1.18 11.61,-0.18 17.08,2.37" fill="#229422" fill-rule="nonzero" id="svg_32"/>
   <path d="m561.72,402.51c1.36,0.59 1.36,0.59 2.33,1.16c0.08,1.39 0.08,1.39 0,2.94l-1.18,1.16c-1.33,0.15 -2.67,0.26 -4,0.33c-3.28,0.15 -3.28,0.15 -6.49,0.82c-0.03,1.16 -0.05,2.29 -0.08,3.45l-0.03,1.93l0.1,1.65l1.18,1.16c1.33,0.15 2.67,0.23 4,0.31c4.44,0.18 4.44,0.18 6.49,1.44c0.08,1.39 0.08,1.39 0,2.94l-1.18,1.16c-1.51,0.13 -2.95,0.21 -4.46,0.18l-1.23,0.03c-3,0 -5.05,-0.57 -7.69,-1.96c-1.51,-1.57 -2.23,-2.63 -2.92,-4.66c-0.23,-3.17 -0.33,-6.08 0.74,-9.06c1.05,-1.55 1.85,-2.68 3.33,-3.81c3.62,-1.26 7.28,-1.57 11.08,-1.16m-226.11,0c1.36,0.59 1.36,0.59 2.33,1.16c0.08,1.39 0.08,1.39 0,2.94l-1.18,1.16c-1.31,0.15 -2.67,0.26 -4,0.33c-3.28,0.15 -3.28,0.15 -6.49,0.82c-0.03,1.16 -0.05,2.29 -0.08,3.45l-0.03,1.93l0.1,1.65l1.18,1.16c1.31,0.15 2.67,0.23 4,0.31c4.44,0.18 4.44,0.18 6.49,1.44c0.08,1.39 0.08,1.39 0,2.94l-1.18,1.16c-1.51,0.13 -2.95,0.21 -4.46,0.18l-1.23,0.03c-2.97,0 -5.05,-0.57 -7.69,-1.96c-1.49,-1.57 -2.26,-2.63 -2.92,-4.66c-0.23,-3.17 -0.33,-6.08 0.72,-9.06c1.08,-1.55 1.87,-2.68 3.36,-3.81c3.59,-1.26 7.26,-1.57 11.08,-1.16m-276.83,0c1.38,0.59 1.38,0.59 2.33,1.16c0.08,1.39 0.08,1.39 0,2.94l-1.15,1.16c-1.36,0.15 -2.69,0.26 -4.05,0.33c-2.97,0.13 -2.97,0.13 -5.87,0.82c-0.72,1.47 -0.67,2.47 -0.69,4.09l0,1.57l0.13,1.36l1.15,1.16c1.33,0.15 2.67,0.23 4.03,0.31c4.44,0.18 4.44,0.18 6.46,1.44c0.08,1.39 0.08,1.39 0,2.94l-1.15,1.16c-1.51,0.13 -2.97,0.21 -4.49,0.18l-1.23,0.03c-2.97,0 -5.03,-0.57 -7.69,-1.96c-1.49,-1.57 -2.23,-2.63 -2.92,-4.66c-0.23,-3.17 -0.31,-6.08 0.74,-9.06c1.05,-1.55 1.87,-2.68 3.36,-3.81c3.59,-1.26 7.26,-1.57 11.05,-1.16" fill="#ff6106" fill-rule="nonzero" id="svg_33"/>
   <path d="m294.81,178.59c-0.79,1.47 -0.79,1.47 -1.74,2.91l-1.18,0l-0.44,1.03c-0.72,1.31 -0.72,1.31 -1.9,2.45c-1.23,1.13 -1.23,1.13 -1.72,2.68c-0.79,1.91 -1.9,2.55 -3.51,3.79c-0.95,1.08 -1.85,2.16 -2.72,3.3l-0.79,0.8l-1.15,0l-0.18,1.06c-0.49,1.52 -1.13,2.29 -2.18,3.5l-0.97,1.08l-0.74,0.8l-2.92,-1.16c-0.31,-2.91 -0.31,-5.49 0.62,-8.27c1.87,-3.97 4.03,-7.24 7.54,-9.86c4.49,-2.81 8.56,-4.89 14,-4.09" fill="#ffb078" fill-rule="nonzero" id="svg_34"/>
   <path d="m221.97,402.51c1.18,0.41 1.18,0.41 2.31,1.16c0.69,0.98 0.69,0.98 1.26,2.11l0.62,1.26l0.62,1.31l0.64,1.29c1.56,3.19 1.56,3.19 1.56,4.56l1.15,0l0.46,-1.52c0.74,-2.11 1.67,-3.99 2.72,-5.97l1.05,-2.03l1.03,-1.6l1.72,-0.57c1.28,0.54 1.28,0.54 2.36,1.16c-0.26,4.09 -1.95,7.34 -3.72,10.97l-0.87,1.83c-2.64,5.46 -2.64,5.46 -4.18,6.49c-1.46,-0.03 -1.46,-0.03 -2.9,-0.57c-0.82,-1.03 -0.82,-1.03 -1.49,-2.34l-0.74,-1.44l-0.72,-1.52c-0.36,-0.75 -0.36,-0.75 -0.74,-1.49c-0.49,-0.95 -0.97,-1.93 -1.44,-2.91c-0.46,-0.93 -0.92,-1.83 -1.41,-2.76c-0.56,-1.08 -1.1,-2.21 -1.62,-3.32c0.13,-2.06 0.13,-2.06 0.59,-3.53l1.74,-0.57zm0,0" fill="#ff6106" fill-rule="nonzero" id="svg_35"/>
   <path d="m375.81,338.77l1.18,0c1.56,10.1 1.56,10.1 -0.03,14.58c-1.64,3.37 -3.67,6.26 -5.79,9.4l23.31,0l0,0.59c-3.33,0.08 -6.69,0.18 -10.03,0.28c-1.13,0.03 -2.26,0.05 -3.38,0.08c-6.46,0.21 -12.79,0.28 -19.23,-0.36c0.87,-2.21 1.82,-4.33 2.9,-6.44l1.18,0l0.13,-1.21c0.59,-2.24 1.59,-3.84 2.79,-5.79l1.15,0l0.44,-1.52c0.79,-2.16 1.85,-4.07 3.05,-6.03l0.64,-1.03c0.54,-0.88 1.1,-1.73 1.69,-2.55" fill="#467f40" fill-rule="nonzero" id="svg_36"/>
   <path d="m642.71,330.58c1.72,0.62 1.72,0.62 2.92,1.75c0.46,2.16 0.46,2.16 0.59,4.09l-1.77,0.59c-0.38,0.77 -0.77,1.55 -1.15,2.34c-0.74,0.95 -1.54,1.88 -2.33,2.78l-1.23,1.42l-1.1,1.06l-1.15,0l-0.41,1.13l-0.77,1.21c-1.33,0.59 -1.33,0.59 -2.9,0.59c-1.62,-1.03 -1.62,-1.03 -2.92,-2.34c-0.72,-2.19 -0.95,-4.15 -0.59,-6.44c1.05,-2.42 2.49,-4.27 4.41,-6.05l1.44,-0.95l1.05,-0.75c1.97,-0.67 3.87,-0.67 5.92,-0.44" fill="#629e46" fill-rule="nonzero" id="svg_37"/>
   <path d="m411.37,177.99l0.82,1.7c1.49,2.63 3.49,4.66 5.56,6.82c1.18,1.42 1.18,1.42 1.82,3.04l0.54,1.31l1.74,0.57c0.97,1.13 0.97,1.13 2,2.52c1.36,1.85 2.79,3.48 4.41,5.1c0.74,0.9 1.46,1.83 2.18,2.76l1.08,1.44l0.82,1.06c-0.69,1.16 -0.69,1.16 -1.74,2.34c-1.44,0.28 -1.44,0.28 -2.92,0c-1.18,-0.98 -1.18,-0.98 -2.2,-2.27l-1.08,-1.29l-0.79,-1.13l0,-1.16l-1.74,-0.59c-0.82,-0.95 -0.82,-0.95 -1.67,-2.16c-2.51,-3.81 -2.51,-3.81 -5.92,-6.62l-0.56,-1.75l-1.1,-0.44l-1.23,-0.72c-0.62,-1.36 -1.21,-2.73 -1.74,-4.09l-1.77,-1.16l0,-1.18l-1.15,0c0.13,-1.39 0.13,-1.39 0.59,-2.91c1.49,-1.06 2.23,-1.18 4.08,-1.18" fill="#7ec77d" fill-rule="nonzero" id="svg_38"/>
   <path d="m414.86,402.51c1.54,0.41 1.54,0.41 2.92,1.16c0.72,1.44 0.64,2.37 0.64,3.97l0,1.67l-0.03,1.75l0,1.75c-0.03,1.44 -0.03,2.86 -0.03,4.3l2.23,0.08l2.9,0.15l1.46,0.05l1.44,0.08l1.28,0.03c1.18,0.21 1.18,0.21 2.92,1.36c0.18,1.47 0.18,1.47 0,2.94l-1.18,1.16c-1.49,0.15 -1.49,0.15 -3.38,0.15l-2.03,0l-2.15,0l-2.15,0l-2.03,0l-1.9,0l-1.51,-0.15l-1.15,-1.16c-0.23,-2.58 -0.18,-5.18 -0.18,-7.78c0,-1.29 -0.03,-2.58 -0.03,-3.86c0,-0.82 0,-1.62 0,-2.45l-0.03,-2.27l0.23,-1.78l1.74,-1.16zm0,0" fill="#ff6106" fill-rule="nonzero" id="svg_39"/>
   <path d="m299.48,179.18c1.41,0.72 1.41,0.72 2.9,1.75c0.56,1.13 0.56,1.13 0.59,2.34c-0.44,1.24 -0.44,1.24 -1.15,2.32l-1.74,1.18c-0.59,1.03 -1.18,2.06 -1.74,3.09c-0.77,1.29 -1.64,2.01 -2.92,2.76l-1.18,0l-0.36,1.21c-0.9,1.93 -2.05,3.27 -3.46,4.84c-0.95,1.06 -0.95,1.06 -2,2.7l-1.15,0l-0.46,1c-0.87,1.62 -1.79,2.91 -3.05,4.27c-1.38,0.8 -1.38,0.8 -2.92,1.16c-1.92,-0.21 -1.92,-0.21 -3.49,-0.59l1.18,-0.57l0.21,-1.06c0.49,-1.7 1.36,-2.6 2.54,-3.91l1.28,-1.42c1.21,-1.21 1.21,-1.21 2.79,-2.39c1.74,-1.52 2.28,-3.17 3.08,-5.31l0.59,-1.13l1.74,-0.57l0,-1.18l1.15,0l0,-1.16l2.92,-2.94l0.59,-1.18c0.82,-1.6 2.1,-2.37 3.49,-3.48l0.59,-1.75zm0,0" fill="#ffa04e" fill-rule="nonzero" id="svg_40"/>
   <path d="m609.74,402.35l1.62,-0.03l1.79,0l1.85,0.03l1.85,-0.03l1.79,0l1.64,0.03c1.51,0.15 2.49,0.54 3.79,1.31c0.08,1.39 0.08,1.39 0,2.94l-1.18,1.16c-1.26,0.1 -1.26,0.1 -2.69,0.08l-1.44,-0.03l-1.1,-0.05c0,0.41 0,0.82 0.03,1.26c0.03,1.91 0.03,3.79 0.05,5.69l0.03,1.98l0,1.91l0.03,1.75l-0.13,1.44l-1.18,1.16l-3.49,-0.57l0,-14.63l-5.23,0l-1.18,-1.16c-0.18,-1.47 -0.18,-1.47 0,-2.94c1.74,-1.16 1.74,-1.16 3.15,-1.31m-414.36,0l1.62,-0.03l1.79,0l1.87,0.03l1.85,-0.03l1.79,0l1.62,0.03c1.54,0.15 2.49,0.54 3.82,1.31c0.05,1.39 0.05,1.39 0,2.94l-1.18,1.16c-1.26,0.1 -1.26,0.1 -2.69,0.08l-1.46,-0.03l-1.08,-0.05c0,0.41 0,0.82 0,1.26c0.03,1.91 0.03,3.79 0.05,5.69l0.03,1.98l0.03,1.91l0.03,1.75l-0.13,1.44l-1.18,1.16l-3.51,-0.57l0,-14.63l-5.23,0l-1.18,-1.16c-0.18,-1.47 -0.18,-1.47 0,-2.94c1.77,-1.16 1.77,-1.16 3.15,-1.31" fill="#ff6106" fill-rule="nonzero" id="svg_41"/>
   <path d="m64.62,330.58c1.72,0.88 1.72,0.88 2.9,1.75c-0.03,1.47 -0.03,1.47 -0.56,3.53c-2.03,2.78 -4.56,5.15 -7,7.6c-0.49,0.64 -0.97,1.29 -1.46,1.93l-1.46,1.57c-1.51,0.36 -1.51,0.36 -2.9,0c-0.95,-1 -0.95,-1 -1.77,-2.34c-0.36,-2.16 -0.28,-4.25 0,-6.44c1.38,-2.86 3.33,-4.53 5.85,-6.41c2.08,-1.42 3.92,-1.39 6.41,-1.18" fill="#ffa04e" fill-rule="nonzero" id="svg_42"/>
   <path d="m309.37,199.06c1.08,-0.05 2.18,-0.08 3.26,-0.08l1.97,0.03l4.18,0.03c1.72,0 3.44,0 5.15,0.03c0.13,3.04 0.15,5.59 -1.08,8.42l-0.62,1.47c-0.62,1.21 -0.62,1.21 -1.79,2.37c-1.82,-0.21 -1.82,-0.21 -3.49,-0.57l0.56,-1.47c0.69,-2.42 0.72,-4.25 0.59,-6.72l-0.59,-0.59c-1.33,-0.28 -1.33,-0.28 -2.9,0l-1.44,1.42c-0.85,0.82 -0.85,0.82 -2.08,1.52c-2.72,0.41 -5.41,0.54 -8.15,0.57l0,1.18l-4.08,0l0,1.16l-1.74,-0.59c0.62,-1.85 1.31,-3.55 2.33,-5.25c2.64,-1.65 5.2,-1.98 8.26,-2.21l1.05,-0.13l0.59,-0.57zm0,0" fill="#ff6106" fill-rule="nonzero" id="svg_43"/>
   <path d="m402.04,185.02c1.92,1.8 3.46,3.48 4.67,5.85l0,1.16l1.03,0.33c1.41,0.9 1.72,1.44 2.51,2.88l0.54,1.08c0.62,1.16 0.62,1.16 2.33,2.14c0.59,0.98 1.18,1.93 1.74,2.91c0.72,0.93 1.41,1.83 2.15,2.73c2.41,3.04 4.38,5.77 5.44,9.55c-2.92,-0.05 -4.82,-0.85 -7.33,-2.37c-2.87,-1.93 -4.97,-3.91 -6.67,-6.98c-0.95,-2.39 -1.18,-4.27 -1.05,-6.8c0.08,-1.34 0.08,-1.34 -0.1,-2.55c-1.31,-1.62 -2.67,-2.7 -4.26,-3.99l-1,-1.29c-0.21,-1.6 -0.1,-3.04 0,-4.66" fill="#24b223" fill-rule="nonzero" id="svg_44"/>
   <path d="m393.29,194.97l1.18,0l0,1.16l1.15,0l0,1.16l1.18,0l0,2.94l1.15,0l0,1.16l1.74,0l0,1.18l1.74,0l0.44,2.19c0.31,1.29 0.31,1.29 0.74,2.47c0.77,0.8 1.54,1.6 2.33,2.34c0.51,1.83 0.51,1.83 0.59,3.53l-1.18,1.16c-1.77,0.31 -3.46,0.23 -5.26,0c-2.77,-1.39 -4.64,-3.27 -6.41,-5.85c-0.62,-2.01 -0.62,-2.01 -0.56,-4.09c0.64,-1.52 1.41,-2.7 2.33,-4.09l-1.18,0l0,-5.25zm0,0" fill="#229422" fill-rule="nonzero" id="svg_45"/>
   <path d="m386.88,320.66c8.15,10.82 8.15,10.82 9.08,16.66c0.26,4.4 0.08,8.76 -0.33,13.13c-3.62,-4.33 -6.97,-9.19 -8.74,-14.6c-0.72,-5.05 -0.44,-10.15 0,-15.19" fill="#467f40" fill-rule="nonzero" id="svg_46"/>
   <path d="m398.55,340.52c1.77,1.7 2.87,3.61 4.08,5.74l0.59,1.06c1.87,3.3 3.54,6.54 4.64,10.17l1.18,0c0.38,0.75 0.77,1.49 1.15,2.27l0.67,1.26c0.51,1.13 0.51,1.13 0.51,2.32c-1.38,0.15 -2.77,0.28 -4.15,0.36l-1.18,0.15c-1.15,0.05 -1.15,0.05 -3.41,-0.52c-1.77,-1.73 -2.69,-3.55 -3.51,-5.85c-0.46,-2.96 -0.51,-5.87 -0.49,-8.86c-0.03,-0.8 -0.03,-1.57 -0.05,-2.37c-0.03,-1.91 -0.03,-3.81 -0.03,-5.74" fill="#629e46" fill-rule="nonzero" id="svg_47"/>
   <path d="m628.15,322.42l0,5.82l1.15,0.59l-0.69,0.9c-3.36,4.3 -4.79,8.37 -5.72,13.73l-1.74,0c-1.51,-1.78 -2.56,-3.71 -3.49,-5.85c-0.23,-1.31 -0.18,-2.19 0.1,-3.48c1.54,-3.91 3.97,-7.57 6.9,-10.56c2.33,-1.16 2.33,-1.16 3.49,-1.16" fill="#ff6106" fill-rule="nonzero" id="svg_48"/>
   <path d="m316.96,202.56l1.74,0c0.18,2.63 0.23,4.15 -0.87,6.54c-1.79,2.01 -3.69,3.43 -6.13,4.56c-1.97,0.49 -3.82,0.67 -5.87,0.64l-1.64,0l-1.72,-0.03l-1.72,0c-1.38,0 -2.79,-0.03 -4.2,-0.03l-1.15,2.34l-1.74,0l0,1.16l-1.18,0l0,1.18l-1.15,0l0,3.48l-3.51,-1.16c0,-1.75 0,-1.75 0.77,-3.32l0.97,-1.34l1.77,0l0,-1.18c1.64,-1.26 3.28,-2.19 5.23,-2.91c2.1,-0.28 4.23,-0.31 6.36,-0.28c1.23,0 2.33,-0.05 3.56,-0.31c1.9,-1.16 3.33,-2.78 4.9,-4.35c1.18,-1.18 2.38,-2.32 3.62,-3.43l1,-0.9l0.97,-0.67zm0,0" fill="#ff941a" fill-rule="nonzero" id="svg_49"/>
   <path d="m654.38,335.86c1.15,1.16 1.15,1.16 1.56,2.37c0.69,3.12 0.9,5.61 0.05,8.7c-1.21,3.19 -3.26,5.28 -5.77,7.44c-1.87,1.31 -3.54,1.88 -5.79,2.14c-5.74,0.05 -5.74,0.05 -8.56,-1.29l-1.9,-1.26l-0.56,-1.16l1.21,0.52c1.9,0.72 3.82,1.29 5.77,1.83l0,-2.34l1.18,0l0,-1.16l1.15,0l0,-1.18l1.18,0l0,-1.16l1.15,0l0.59,1.16c1.69,-0.1 1.69,-0.1 3.49,-0.57c1.18,-0.95 1.18,-0.95 1.74,-2.34c0.15,-1.85 0.15,-1.85 0,-3.53l1.18,0l0.51,-1.06c0.64,-1.26 0.64,-1.26 1.82,-3.01c0.05,-1.36 0.05,-2.73 0,-4.09" fill="#229422" fill-rule="nonzero" id="svg_50"/>
   <path d="m68.11,328.24c1.79,0.62 2.82,1.11 4.26,2.34l1,1.18l0,1.16c-1.64,0.93 -1.64,0.93 -3.51,1.75c-1.95,-0.64 -2.67,-1.47 -4.08,-2.91c-1.23,-0.7 -1.23,-0.7 -2.97,-0.8c-2.54,0.23 -3.82,0.88 -5.87,2.29c-1.74,1.39 -2.97,2.94 -3.97,4.92c-0.21,2.16 -0.23,4.27 0,6.44c0.85,1.57 0.85,1.57 2.33,2.34c1.82,0.75 1.82,0.75 3.49,1.16l-1.15,2.34l1.15,1.18l-0.56,1.16l1.74,1.75l-1.18,0.59c-2.67,-1.65 -4.54,-3.24 -6.41,-5.85c-1.18,-2.32 -1.72,-4.38 -1.95,-6.98c0.13,-2.73 0.69,-5.2 1.95,-7.65c1.9,-2.42 3.95,-4.22 6.56,-5.85c3.05,-0.82 6.03,-0.9 9.18,-0.59" fill="#ff6106" fill-rule="nonzero" id="svg_51"/>
   <path d="m94.93,320.07c3.77,4.2 5.2,8.55 6.41,14.01l-12.26,0l-1.15,-2.91l1.15,0l0.59,-1.16l1.15,0l0.23,-1.08l0.28,-1.42l0.31,-1.39c0.36,-1.36 0.85,-2.47 1.51,-3.71l1.18,0l0.59,-2.34zm0,0" fill="#24b223" fill-rule="nonzero" id="svg_52"/>
   <path d="m642.15,317.14c0.67,2.16 0.59,4.2 0.56,6.44l-1.77,0.44c-4,0.98 -7.54,2.01 -11.05,4.22l-1.74,0l-0.08,-1.11l-0.15,-1.47c-0.03,-0.49 -0.08,-0.95 -0.1,-1.47l-0.26,-1.21l-1.15,-0.57c4.77,-3.73 9.67,-5.43 15.74,-5.28" fill="#ff941a" fill-rule="nonzero" id="svg_53"/>
   <path d="m302.96,182.09c1.21,1.03 1.21,1.03 2.33,2.34c-0.15,1.44 -0.54,2.27 -1.36,3.45l-0.95,1.08l-0.92,1.08l-0.85,0.82l-1.15,0l-0.46,0.98c-0.85,1.6 -1.85,2.91 -3.05,4.27l-1.15,0l-0.46,1c-0.79,1.49 -1.72,2.76 -2.74,4.12l-1.08,1.42l-0.97,1.06l-1.15,0l-0.49,1.03c-0.74,1.39 -1.36,2.5 -2.44,3.66c-1.56,0.23 -1.56,0.23 -3.31,0.13l-1.77,-0.05l-1.33,-0.08c1.05,-0.88 1.05,-0.88 2.33,-1.75l1.74,0l0.44,-1c1.1,-2.03 2.51,-3.73 4.18,-5.36c1.21,-1.24 2.23,-2.5 3.26,-3.89c1.77,-2.34 3.74,-4.35 5.85,-6.39c1.49,-1.44 1.49,-1.44 2.44,-3.14l0.74,-1.29l1.18,0l1.15,-3.5zm0,0" fill="#ffa04e" fill-rule="nonzero" id="svg_54"/>
   <path d="m213.82,402.51c1.54,0.52 1.54,0.52 2.9,1.16c0.62,3.55 0.69,7.03 0.69,10.64l0.03,1.73l0,1.7l0,1.52c-0.15,1.47 -0.56,2.45 -1.28,3.71c-1.41,0.08 -1.41,0.08 -2.92,0l-1.18,-1.16c-0.23,-2.58 -0.18,-5.18 -0.18,-7.78c0,-1.29 0,-2.58 -0.03,-3.86c0,-0.82 0,-1.62 0,-2.45l0,-2.27l0.21,-1.78l1.77,-1.16zm128.2,0c1.54,0.41 1.54,0.41 2.92,1.16c1.28,2.6 0.69,6.15 0.69,8.99l0,2.21l0.03,2.11l0,1.96c-0.13,1.65 -0.44,2.63 -1.31,4.02c-1.38,0.08 -1.38,0.08 -2.92,0l-1.15,-1.16c-0.23,-2.58 -0.21,-5.18 -0.18,-7.78c0,-1.29 -0.03,-2.58 -0.03,-3.86c-0.03,-0.82 -0.03,-1.62 -0.03,-2.45l0,-2.27l0.23,-1.78l1.74,-1.16zm0,0" fill="#ff6106" fill-rule="nonzero" id="svg_55"/>
   <path d="m298.89,175.08c3.33,-0.57 6.2,0.52 9.36,1.62c2.28,0.95 4.44,2.06 6.38,3.63l0.59,1.16l-1.59,0.62l-2.08,0.77l-2.05,0.8c-1.44,0.57 -2.82,1.18 -4.2,1.91l-0.97,-1.6c-1.31,-1.83 -2.44,-2.96 -4.26,-4.25c-1.95,-0.64 -3.62,-0.77 -5.67,-0.9l-2.08,-0.15l-1.59,-0.1l0,-0.59l1.33,-0.03l1.77,-0.1l1.74,-0.08l1.56,-0.36c0.97,-1.16 0.97,-1.16 1.74,-2.34" fill="#ff941a" fill-rule="nonzero" id="svg_56"/>
   <path d="m659.05,362.74l0.56,0l0,18.13l-10.49,0c1.1,-2.19 2.15,-4.22 3.38,-6.28l0.92,-1.52c0.64,-1.06 1.28,-2.09 1.92,-3.14l0.92,-1.52l0.85,-1.39c0.77,-1.39 1.36,-2.78 1.92,-4.27" fill="#ff6106" fill-rule="nonzero" id="svg_57"/>
   <path d="m406.11,179.75l0.59,2.34l1.15,0c1.1,1.16 2.05,2.19 2.92,3.5l0.28,1.62l0.31,1.31c1.44,0.8 1.44,0.8 2.9,1.16l0,1.75l1.03,0.41c1.72,1 2.62,2.21 3.82,3.76c4.9,6.41 4.9,6.41 10.9,11.61l-5.23,0.59l-0.95,-1.52c-0.97,-1.47 -2.03,-2.68 -3.28,-3.89l-1.62,-1.6l0,-1.18l-1.15,0c-2.2,-2.39 -2.2,-2.39 -2.62,-4.12l-0.31,-1.13c-0.77,-0.77 -1.54,-1.57 -2.33,-2.34c-0.67,-0.88 -1.31,-1.75 -1.97,-2.63c-1.23,-1.65 -2.28,-2.88 -4.08,-3.94l-1.51,-1.03c-0.62,-1.49 -0.62,-1.49 -0.59,-2.94c0.85,-1.06 0.85,-1.06 1.74,-1.75" fill="#49bd47" fill-rule="nonzero" id="svg_58"/>
   <path d="m421.86,180.93c2.46,0.31 4.05,0.7 6.05,2.21c2.62,2.52 4.77,5.15 6.31,8.47c0.82,2.86 0.69,5.67 0.46,8.6l-1.15,0l-1.18,-3.5l-1.15,0l0,-1.18l-1.18,0l0,-2.32l-1.05,-0.49c-1.36,-0.75 -2.03,-1.24 -3.03,-2.45c-0.74,-1.47 -1.46,-2.94 -2.15,-4.46l-0.56,-1.24c-1.36,-2.99 -1.36,-2.99 -1.36,-3.66" fill="#a5d3a4" fill-rule="nonzero" id="svg_59"/>
   <path d="m315.78,201.38c1.38,0.13 1.38,0.13 2.33,0.59c-2.03,2.11 -4.1,4.04 -6.41,5.85l-1.15,0l-0.59,1.75c-1.21,1.26 -2.03,2.09 -3.49,2.94c-1.67,0.36 -3.28,0.36 -4.97,0.31c-1.67,0 -3.31,-0.03 -4.95,0.28c-1.92,1.11 -1.92,1.11 -3.49,2.32l-1.74,0l0,1.18l-1.77,0c-0.62,1.55 -1.21,3.06 -1.74,4.66l-1.74,-0.57l0,-1.18l-1.15,0l1.15,-2.91l1.18,0l0,-1.18l1.15,0l0,-1.16c5.03,-2.21 9.44,-3.97 14.92,-4.33c2.15,-0.15 3.2,-0.39 5.15,-1.39c1.49,-1.29 2.59,-2.65 3.82,-4.22c1.1,-1.16 2.18,-1.98 3.49,-2.94" fill="#ff941a" fill-rule="nonzero" id="svg_60"/>
   <path d="m416.6,178.59c3.15,0.28 5.38,0.72 8.18,2.34l-2.33,0.57c0.69,1.52 1.41,3.04 2.15,4.56l0.59,1.29c1.28,2.63 2.49,4.04 4.82,5.87l0,2.32l1.18,0l0,1.18l1.15,0l1.18,1.75l-0.59,1.75c-1.77,-0.93 -2.82,-1.62 -3.97,-3.24c-0.69,-1.44 -0.69,-1.44 -0.69,-2.6l-2.33,-0.59l0,-1.16l-1.15,0l-1.77,-2.94l-1.33,-1.26c-2.13,-2.24 -3.77,-4.71 -5.08,-7.49l0,-2.34zm0,0" fill="#a5d3a4" fill-rule="nonzero" id="svg_61"/>
   <path d="m300.63,179.75l2.33,1.75c-0.15,1.34 -0.15,1.34 -0.59,2.94c-0.74,0.8 -1.54,1.57 -2.31,2.34c-0.41,0.67 -0.82,1.36 -1.18,2.09c-1.15,2.01 -1.15,2.01 -2.41,3.14c-1.08,0.62 -1.08,0.62 -2.26,0.62l-0.36,1.21c-0.9,1.93 -2.05,3.27 -3.46,4.84c-0.95,1.06 -0.95,1.06 -2,2.7l-1.15,0l-0.46,1c-0.87,1.62 -1.79,2.91 -3.05,4.27c-1.46,0.8 -1.46,0.8 -2.92,1.16c-1.33,-0.21 -1.33,-0.21 -2.31,-0.59l1.74,-0.57l0.56,-1.75l1.51,-0.88c2.46,-1.55 3.85,-3.89 5.46,-6.26c1.38,-1.91 2.85,-3.63 4.44,-5.36c0.95,-1.06 0.95,-1.06 2,-2.73l1.18,0l0.38,-1.26c0.77,-1.65 0.77,-1.65 2.23,-3.04c1.36,-1.44 1.72,-1.96 2.23,-3.76l0.38,-1.88zm0,0" fill="#ffa04e" fill-rule="nonzero" id="svg_62"/>
   <path d="m287.38,179.98l1.03,0.36c-1.51,2.47 -3,4.07 -5.26,5.85l-0.82,1.44c-0.97,1.57 -2.08,2.42 -3.51,3.55c-1.38,1.31 -2.23,2.88 -3.13,4.56l-0.69,0.98l-1.74,0.57c-0.26,-2.34 -0.31,-3.94 0.62,-6.13c2.51,-4.33 5.41,-7.65 9.69,-10.22c2.15,-1.24 2.15,-1.24 3.82,-0.95" fill="#ffc6a4" fill-rule="nonzero" id="svg_63"/>
   <path d="m407.86,196.72c3.85,2.88 7,6.36 9.1,10.71c0.72,1.67 1.36,3.37 1.97,5.07c-2.28,-0.33 -3.69,-0.95 -5.54,-2.34c-2.23,-1.83 -3.74,-3.63 -5.03,-6.23c-0.79,-2.16 -1.15,-4.33 -1.08,-6.64l0.56,-0.57zm0,0" fill="#24b223" fill-rule="nonzero" id="svg_64"/>
   <path d="m409.63,177.99l1.74,0l0.82,1.7c1.49,2.63 3.49,4.66 5.56,6.82c1.18,1.42 1.18,1.42 1.82,3.04l0.54,1.31l1.74,0.57c0.97,1.13 0.97,1.13 2,2.52c1.36,1.85 2.79,3.48 4.41,5.1c0.74,0.9 1.46,1.83 2.18,2.76l1.08,1.44l0.82,1.06l-0.59,1.16c-2.72,-1.11 -4.41,-3.06 -6.23,-5.33c-0.69,-0.9 -1.41,-1.8 -2.1,-2.73c-0.79,-1.06 -1.64,-2.06 -2.51,-3.04c-1.18,-1.49 -1.95,-2.78 -2.82,-4.46c-1,-1.93 -1.49,-2.58 -3.33,-3.86l-1.64,-1.03c-0.79,-1.62 -0.79,-1.62 -1.15,-2.94l-1.18,0c-0.97,-1.06 -0.97,-1.06 -1.74,-2.34l0.59,-1.75zm0,0" fill="#7ec77d" fill-rule="nonzero" id="svg_65"/>
   <path d="m646.23,334.67c0.38,1 0.38,1 0.56,2.34c-0.54,0.98 -1.13,1.96 -1.74,2.94c-0.28,0.85 -0.56,1.73 -0.82,2.58c-0.79,2.42 -1.56,4.25 -3.26,6.18c-1.85,1.21 -3.72,2.24 -5.82,2.94c-1.36,-0.23 -1.36,-0.23 -2.33,-0.59c0.41,-1.31 0.41,-1.31 1.15,-2.94c0.97,-0.8 1.95,-1.57 2.92,-2.32c1.77,-1.91 3.41,-3.89 5.08,-5.87l0.92,-1.11l0.85,-1c0.72,-0.8 0.72,-0.8 1.9,-1.39l0.59,-1.75zm0,0" fill="#24b223" fill-rule="nonzero" id="svg_66"/>
   <path d="m641.56,330.58l0.59,1.75c-0.95,1 -1.92,1.98 -2.92,2.94l-1.18,0l-0.38,1c-1,1.73 -2.2,2.78 -3.69,4.12l-1.56,1.42l-1.33,1.06l-1.18,0c-0.21,-2.03 -0.28,-3.45 0.56,-5.33c1.69,-2.86 3.62,-4.69 6.41,-6.52c1.59,-0.57 3,-0.52 4.69,-0.44" fill="#a5d3a4" fill-rule="nonzero" id="svg_67"/>
   <path d="m402.63,183.84l0.59,1.75l1.03,0.52c1.74,0.9 2.77,2.11 4.05,3.58l1.44,1.57l1.05,1.36l0,1.16l1.18,0c0.9,1 0.9,1 2,2.45c2.23,2.91 4.59,5.72 6.97,8.5c2.03,2.39 2.03,2.39 2.67,3.68c-1.59,0.15 -1.59,0.15 -3.49,0c-1.28,-1.06 -1.28,-1.06 -2.41,-2.45l-1.21,-1.47l-1.05,-1.34l-1.44,-1.7c-0.9,-1.24 -0.9,-1.24 -1.49,-2.99l-1.74,-1.18c-0.59,-1 -1.15,-2.03 -1.72,-3.06c-0.79,-1.31 -1.85,-2.27 -2.95,-3.35c-0.59,-0.98 -1.15,-1.96 -1.74,-2.94l-0.97,-0.9l-0.77,-0.85l0,-2.34zm0,0" fill="#49bd47" fill-rule="nonzero" id="svg_68"/>
   <path d="m64.03,331.17c-1.28,2.34 -2.79,4.17 -4.62,6.1c-1.59,1.67 -3.03,3.27 -4.23,5.2l-1.05,1.55l-1.18,0c-0.69,-2.11 -0.77,-3.61 -0.59,-5.85c1.46,-2.81 3.36,-4.53 5.85,-6.41c1.87,-0.95 3.74,-0.62 5.82,-0.59" fill="#ffb078" fill-rule="nonzero" id="svg_69"/>
   <path d="m386.88,320.66c3.41,4.56 3.41,4.56 4.08,6.41c0.28,2.63 0.23,5.23 0.15,7.85l-0.03,2.14c-0.05,1.75 -0.08,3.48 -0.13,5.2c-1.74,-2.03 -3.15,-3.86 -4.08,-6.41c-0.21,-2.63 -0.15,-5.2 -0.1,-7.83l0.03,-2.14c0.03,-1.75 0.05,-3.5 0.08,-5.23m-11.08,18.1l1.18,0c1.1,11.2 1.1,11.2 -0.13,15.01c-0.85,1.42 -1.59,2.6 -2.79,3.71l-1.15,0c-0.1,-2.24 -0.15,-4.48 -0.18,-6.72l-0.08,-1.93c-0.08,-4.58 -0.08,-4.58 0.87,-6.88c0.69,-1.18 1.33,-2.21 2.28,-3.19" fill="#467f40" fill-rule="nonzero" id="svg_70"/>
   <path d="m642.46,328.13l1.36,-0.03c1.23,0.13 1.23,0.13 2.97,1.31c-2.05,0.8 -3.85,1.21 -6.05,1.36c-2.49,0.23 -4.23,0.95 -6.31,2.39c-1.82,1.6 -3.05,3.32 -3.95,5.59c-0.31,1.73 -0.21,2.91 0,4.69c0.38,0.77 0.77,1.57 1.15,2.34c0.08,2.09 0.08,2.09 0,4.09l0,1.75c-1.51,-1.96 -2.69,-3.81 -3.28,-6.26c-0.38,-3.17 -0.26,-5.92 0.92,-8.91c1.28,-2.47 2.9,-4.43 5.18,-6.05c2.67,-1.62 4.92,-2.27 8,-2.29" fill="#229422" fill-rule="nonzero" id="svg_71"/>
   <path d="m392.7,203.72c1.03,0.1 1.03,0.1 2.33,0.59c3.26,2.52 6.31,5.43 8.74,8.78l0,1.16c-1.62,0.1 -3.05,0.18 -4.67,0c-2.77,-1.42 -4.64,-3.27 -6.41,-5.85c-0.49,-2.24 -0.49,-2.24 -0.56,-4.09l0.56,-0.59zm0,0" fill="#49bd47" fill-rule="nonzero" id="svg_72"/>
   <path d="m300.07,190.87l1.15,0.57c-2.46,6.03 -2.46,6.03 -4.87,8.37c-1.64,1.67 -2.67,3.32 -3.79,5.33l-0.67,0.93l-1.15,0l-0.59,1.75c-1,0.7 -1,0.7 -2.33,1.18c-1.62,0.1 -1.62,0.1 -3.36,0.05l-1.72,-0.03l-1.33,-0.03l0,-0.59l2.15,-0.05c1.31,-0.1 1.31,-0.1 2.51,-0.54c0.95,-0.93 1.56,-1.88 2.26,-3.01c0.95,-1.55 2.28,-2.7 3.56,-3.99c0.59,-0.77 1.18,-1.57 1.77,-2.34c1.38,-1.93 2.92,-3.58 4.64,-5.25c0.62,-0.77 1.18,-1.55 1.77,-2.34" fill="#ff941a" fill-rule="nonzero" id="svg_73"/>
   <path d="m294.81,178.59l1.15,0.59c-0.44,0.67 -0.9,1.36 -1.38,2.03l-0.77,1.16l-0.74,0.9l-1.18,0l-0.56,3.5l-1.18,0l-0.1,0.95c-0.69,2.03 -2.15,3.3 -3.64,4.74l-0.9,0.9c-0.77,0.75 -1.56,1.47 -2.36,2.16l-1.15,0l-0.56,1.11l-1.18,2.42l-1.18,0l-0.56,1.75c-1.69,1.31 -1.69,1.31 -3.51,2.34l-1.74,-0.59l0,-1.18l1.26,-0.05c1.82,-0.44 1.82,-0.44 3.26,-2.21c1.38,-1.7 1.38,-1.7 1.9,-3.58c0.85,-0.72 1.72,-1.44 2.59,-2.14c1.26,-1.08 2.2,-2.39 3.23,-3.71l1.77,-1.16l0.49,-1.36c0.85,-1.98 2.03,-2.99 3.59,-4.48c1.18,-1.34 2.33,-2.7 3.49,-4.09" fill="#ffb078" fill-rule="nonzero" id="svg_74"/>
   <path d="m641.56,330.58c1.41,0.49 1.41,0.49 2.9,1.18l0.59,1.75l-1.13,0.98c-2.44,2.16 -4.79,4.3 -6.87,6.85c-1.59,1.88 -3.08,2.96 -5.41,3.86l-1.74,-1.75c1.69,-1.75 3.44,-3.4 5.26,-4.97c2.38,-2.09 4.64,-4.07 6.41,-6.72l0,-1.18zm0,0" fill="#7ec77d" fill-rule="nonzero" id="svg_75"/>
   <path d="m66.36,342.86l11.64,0c0.59,2.94 0.59,2.94 0.05,4.56l-0.62,1.29l-0.59,-1.75l-1.15,0l-0.59,-2.34c-1.41,0.49 -1.41,0.49 -2.92,1.18l-0.77,0.9l-0.97,0.85c-1.13,0.15 -2.28,0.33 -3.41,0.39c-1.56,0.18 -1.56,0.18 -4.18,1.36l3.51,-6.44zm0,0" fill="#ff6106" fill-rule="nonzero" id="svg_76"/>
   <path d="m287.25,179.18l2.31,0c-0.72,3.3 -1.85,5.64 -4.08,8.19l-1.54,1.49c-1.36,1.29 -1.36,1.29 -1.95,2.58c-0.85,1.73 -2.1,2.83 -3.49,4.09l-1.18,0l-0.41,1.39l-0.74,1.55c-1.54,0.77 -1.54,0.77 -2.92,1.16c1.21,-3.3 3.08,-6 5.26,-8.76c0.95,-0.82 1.92,-1.6 2.9,-2.34l1.18,-1.75c1.18,-1.8 2.38,-2.78 4.08,-4.09c0.82,-1.18 0.82,-1.18 1.15,-2.34l-0.56,-1.16zm0,0" fill="#ffc6a4" fill-rule="nonzero" id="svg_77"/>
   <path d="m636.53,409.97l1.51,0.03l1.54,0c1.38,0.1 1.38,0.1 3.13,0.7c0.36,1.67 0.36,1.67 0.59,3.5l-1.15,1.16c-1.9,0.13 -1.9,0.13 -4.13,0.1l-2.23,0l-1.82,-0.1l-0.56,-0.59c-0.15,-1.7 -0.15,-1.7 0,-3.5c1.74,-1.16 1.74,-1.16 3.13,-1.29m-60.61,0l1.54,0.03l1.51,0c1.38,0.1 1.38,0.1 3.13,0.7c0.38,1.67 0.38,1.67 0.59,3.5l-1.15,1.16c-1.87,0.13 -1.87,0.13 -4.13,0.1l-2.23,0l-1.82,-0.1l-0.56,-0.59c-0.15,-1.7 -0.15,-1.7 0,-3.5c1.74,-1.16 1.74,-1.16 3.13,-1.29m-97.89,0l1.51,0.03l1.54,0c1.38,0.1 1.38,0.1 3.13,0.7c0.36,1.67 0.36,1.67 0.59,3.5l-1.18,1.16c-1.87,0.13 -1.87,0.13 -4.1,0.1l-2.26,0l-1.79,-0.1l-0.59,-0.59c-0.15,-1.7 -0.15,-1.7 0,-3.5c1.74,-1.16 1.74,-1.16 3.15,-1.29m-339.18,0l1.51,0.03l1.54,0c1.38,0.1 1.38,0.1 3.13,0.7c0.38,1.67 0.38,1.67 0.59,3.5l-1.15,1.16c-1.9,0.13 -1.9,0.13 -4.13,0.1l-2.23,0l-1.82,-0.1l-0.56,-0.59c-0.15,-1.7 -0.15,-1.7 0,-3.5c1.74,-1.16 1.74,-1.16 3.13,-1.29m178.68,-208.6l6.41,0c-0.23,3.94 -0.97,6.52 -2.9,9.94l-4.08,-0.57l0.56,-1.47c0.69,-2.42 0.72,-4.22 0.59,-6.72l-0.59,-1.18zm0,0" fill="#ff6106" fill-rule="nonzero" id="svg_78"/>
   <path d="m379.32,332.33l0.56,0c0.18,2.27 0.31,4.51 0.44,6.77l0.15,1.93c0.26,4.66 0.26,4.66 -0.51,6.72c-0.64,1.11 -0.64,1.11 -1.82,2.7l-1.15,0l0,-11.69l-1.18,-0.59c0.59,-0.95 1.15,-1.93 1.72,-2.91l0.97,-1.65l0.82,-1.29zm0,0" fill="#467f40" fill-rule="nonzero" id="svg_79"/>
   <path d="m403.22,349.3c1.74,1.16 1.74,1.16 2.64,2.76c0.79,1.8 1.44,3.55 2,5.43l1.18,0l1.74,5.25l-6.41,0l-0.1,-2.5l-0.15,-3.24l-0.08,-1.65l-0.08,-1.57l-0.05,-1.47c-0.08,-1.36 -0.08,-1.36 -0.69,-3.01" fill="#629e46" fill-rule="nonzero" id="svg_80"/>
   <path d="m50.62,339.95l1.74,0l0.15,1.21c0.26,1.6 0.54,3.09 1.03,4.64c1.31,1.24 1.31,1.24 2.9,1.75l1.36,0.7l0.97,0.46l-1.15,1.75l1.15,1.18l-0.56,1.16l1.74,1.75l-1.18,0.59c-2.67,-1.65 -4.54,-3.24 -6.41,-5.85c-1.23,-2.42 -1.82,-4.58 -1.85,-7.31l0.1,-2.03zm0,0" fill="#ff941a" fill-rule="nonzero" id="svg_81"/>
   <path d="m411.37,177.99c1,0.08 1,0.08 2.33,0.59c0.82,1.16 1.59,2.39 2.28,3.66c1.54,2.7 3.05,4.74 5.28,6.88c1.33,1.57 2.62,3.19 3.92,4.84c1.33,1.62 1.33,1.62 2.9,3.14c1.33,1.36 2.13,2.65 3.1,4.27c0.74,0.82 1.51,1.6 2.33,2.34l-1.77,0.59l-0.74,-0.98c-2.08,-2.73 -4.23,-5.36 -6.51,-7.93c-0.74,-0.85 -1.46,-1.75 -2.18,-2.63c-1,-1.34 -1,-1.34 -2.13,-2.39c-1.28,-1.31 -2.41,-2.68 -3.54,-4.12c-1.36,-1.7 -2.69,-3.37 -4.13,-5l-1.15,-1.52l0,-1.75zm0,0" fill="#7ec77d" fill-rule="nonzero" id="svg_82"/>
   <path d="m368.24,352.21l0.59,0l0,10.53l-6.41,0c0.54,-2.19 1.28,-3.86 2.31,-5.85l1.18,0l0.18,-1.34c0.41,-1.6 0.41,-1.6 1.28,-2.65l0.87,-0.7zm0,0" fill="#467f40" fill-rule="nonzero" id="svg_83"/>
   <path d="m60.54,330.58c1.36,-0.03 2.72,-0.03 4.08,0l1.74,1.18l0,1.75l-3.51,2.34c-0.59,0.95 -1.18,1.93 -1.74,2.91c-1.9,2.39 -3.79,4.76 -6.41,6.44c-1.31,-0.18 -1.31,-0.18 -2.33,-0.59l0.59,-2.34l0,1.75l1.18,0l0.41,-0.95c0.92,-1.67 2.03,-3.04 3.26,-4.51l1.41,-1.73l1.33,-1.57l0.97,-1.18c0.64,-0.77 1.28,-1.57 1.92,-2.32l-2.9,-0.59l0,-0.59zm0,0" fill="#ffb078" fill-rule="nonzero" id="svg_84"/>
   <path d="m385.73,320.07l0.56,0c0.05,2.58 0.08,5.15 0.08,7.75l0.05,2.21l0,2.14l0.03,1.96c-0.13,1.67 -0.44,2.63 -1.31,4.04l-1.15,0l-0.59,-11.1l-1.74,1.16c1.03,-2.88 2.56,-5.51 4.08,-8.16" fill="#629e46" fill-rule="nonzero" id="svg_85"/>
   <path d="m647.97,342.86l2.33,0l1.15,1.75c-0.03,2.01 -0.03,2.01 -0.59,4.09c-1.31,1.47 -1.31,1.47 -2.9,2.34c-1.64,-0.15 -1.64,-0.15 -2.92,-0.59l0,-1.16l-1.15,0c0.46,-1.13 0.46,-1.13 1.15,-2.34l1.74,-0.59l0,-2.34l1.18,0l0,-1.16zm0,0" fill="#229422" fill-rule="nonzero" id="svg_86"/>
   <path d="m317.53,204.31l1.18,0c-0.1,1.83 -0.1,1.83 -0.59,4.09c-1.36,2.01 -2.56,3.27 -4.59,4.58c-2.08,0.77 -3.72,0.8 -5.9,0.67c1.44,-1.96 2.51,-3.01 4.67,-4.09c0.77,-0.95 1.56,-1.93 2.33,-2.91c1.51,-1.36 1.51,-1.36 2.9,-2.34m-250.01,128.61c0.72,0.93 0.72,0.93 1.18,2.34c-0.72,1.83 -0.72,1.83 -1.87,3.84l-1.1,2.01c-0.9,1.39 -1.59,2.5 -2.87,3.5l-1.15,0l-0.54,1.13c-0.62,1.21 -0.62,1.21 -1.21,1.8c-1.56,0.08 -3.1,0.03 -4.67,0l1.21,-0.88c1.77,-1.52 3.2,-3.12 4.72,-4.89c0.72,-0.85 1.46,-1.67 2.2,-2.5c2.59,-2.86 2.59,-2.86 4.1,-6.36" fill="#ffa04e" fill-rule="nonzero" id="svg_87"/>
   <path d="m393.88,201.97c1.31,0.05 1.31,0.05 2.92,0.59c3.23,2.24 6.18,5.33 8.15,8.76c-0.18,1.65 -0.18,1.65 -0.59,2.94c-1.41,-1.39 -2.77,-2.73 -3.97,-4.33c-2.2,-2.65 -4.82,-4.87 -7.69,-6.77l1.18,-1.18zm0,0" fill="#49bd47" fill-rule="nonzero" id="svg_88"/>
   <path d="m298.89,175.08c-1.1,2.27 -1.1,2.27 -1.74,2.91c-0.92,0.08 -1.85,0.1 -2.77,0.15c-4.05,0.31 -7.51,1.75 -11.23,3.35c0.85,-1.96 1.85,-3.27 3.51,-4.66c3.97,-1.55 8,-1.96 12.23,-1.75" fill="#ff6106" fill-rule="nonzero" id="svg_89"/>
   <path d="m408.29,175.03l2.08,0.03l1.59,0.03l0.56,2.34l2.33,0.57l-1.03,0.08c-2.97,0.26 -5.05,0.8 -7.72,2.27l-1.74,0l-0.18,-1.67l-0.41,-1.83l-1.74,-1.18c2.1,-0.64 4.08,-0.64 6.26,-0.62" fill="#229422" fill-rule="nonzero" id="svg_90"/>
   <path d="m402.04,185.02c1.92,1.8 3.46,3.48 4.67,5.85l0,1.16l1.03,0.33c1.41,0.9 1.72,1.44 2.51,2.88l0.54,1.08c0.62,1.16 0.62,1.16 2.33,2.14c0.85,1.31 1.64,2.68 2.33,4.09c-2.31,-0.93 -3.59,-2.42 -5.2,-4.27c-3.38,-3.89 -3.38,-3.89 -7.2,-7.31l-1,-1.29c-0.21,-1.6 -0.1,-3.04 0,-4.66" fill="#24b223" fill-rule="nonzero" id="svg_91"/>
   <path d="m416.6,178.59c3.15,0.28 5.38,0.72 8.18,2.34l-2.33,0.57l3.49,7.62l-2.33,-1.18l0,-1.16l-1.15,0c-1.82,-1.65 -3,-3.09 -4.08,-5.28l-1.77,-0.57l0,-2.34zm0,0" fill="#a5d3a4" fill-rule="nonzero" id="svg_92"/>
   <path d="m68.11,335.27l0.59,0c0.13,2.32 -0.08,3.06 -1.18,5.25l10.49,0l0,2.34l-11.64,0c0,-4.69 0,-4.69 0.85,-6.44l0.9,-1.16zm204.55,-134.45l1.18,1.75c1.05,1.16 2.13,2.29 3.23,3.43c0.85,1.24 0.85,1.24 1.03,2.78l-0.18,1.39c-0.87,1.06 -0.87,1.06 -1.74,1.75l-1.77,-0.59c-1.51,-2.37 -2.28,-4.74 -2.49,-7.57c0.18,-1.78 0.18,-1.78 0.74,-2.94" fill="#ff6106" fill-rule="nonzero" id="svg_93"/>
   <path d="m434.67,194.97l1.15,0.57c0.77,3.5 0.97,6.88 -0.03,10.3c-0.69,1.67 -1.46,3.3 -2.28,4.92l-1.18,-0.59l0,-3.5l-1.15,0c0.59,-1.29 1.21,-2.42 2.05,-3.55c1.28,-2.6 1.28,-5.28 1.44,-8.14" fill="#229422" fill-rule="nonzero" id="svg_94"/>
   <path d="m638.05,330.58l3.51,0l0.59,1.75c-0.95,1 -1.92,1.98 -2.92,2.94l-1.18,0l-0.38,1c-1,1.73 -2.2,2.78 -3.69,4.12l-1.56,1.42l-1.33,1.06l-1.18,0l0,-4.09l0.59,1.18l1.74,0l0.59,-1.78c1.28,-1.06 2.64,-2.01 4,-2.96c1.33,-1.06 1.33,-1.06 2,-2.7l0.41,-1.34l-1.18,-0.59zm0,0" fill="#a5d3a4" fill-rule="nonzero" id="svg_95"/>
   <path d="m645.64,333.51l0.59,0l0,2.91l-1.77,0.59c-0.38,0.77 -0.77,1.55 -1.15,2.34c-0.74,0.95 -1.54,1.88 -2.33,2.78l-1.23,1.42l-1.1,1.06l-1.15,0l-0.41,1.13l-0.77,1.21c-1.51,0.44 -1.51,0.44 -2.9,0.59l1.15,-0.59c0.38,-0.77 0.79,-1.57 1.18,-2.34c0.54,-0.7 1.13,-1.39 1.74,-2.09l1.08,-1.21l1.26,-1.36l1.54,-1.75c3.03,-3.37 3.03,-3.37 4.28,-4.69" fill="#49bd47" fill-rule="nonzero" id="svg_96"/>
   <path d="m72.77,361.59l9.33,0c-3.59,3.58 -3.59,3.58 -6.41,4.66c-1.41,-0.18 -1.41,-0.18 -2.33,-0.57l-0.59,-4.09zm0,0" fill="#229422" fill-rule="nonzero" id="svg_97"/>
   <path d="m52.36,320.66c1.23,2.06 1.49,4.04 1.77,6.41l-3.51,2.34c-1.33,-2.03 -1.56,-3.43 -1.79,-5.79l0.05,-1.21c1.18,-1.34 1.72,-1.75 3.49,-1.75" fill="#24b223" fill-rule="nonzero" id="svg_98"/>
   <path d="m316.96,202.56l1.74,0l0,1.75c-1.08,0.98 -1.08,0.98 -2.49,2.01c-1.87,1.36 -3.49,2.78 -5.1,4.43c-1.31,1 -2.69,1.96 -4.08,2.91l0,-2.34c1.28,-1.13 1.28,-1.13 2.92,-2.32l1.38,-1.39c1.18,-1.21 2.38,-2.37 3.64,-3.48l1,-0.9l0.97,-0.67zm0,0" fill="#ffa04e" fill-rule="nonzero" id="svg_99"/>
   <path d="m420.68,197.28c1.1,0.15 1.1,0.15 2.33,0.59l0.56,1.13l0.62,1.21c0.95,0.41 1.92,0.8 2.9,1.16l0.59,1.78c0.77,0.39 1.54,0.77 2.33,1.16l1.18,1.75c-1.28,0.46 -1.28,0.46 -2.92,0.59c-1.54,-1.31 -1.54,-1.31 -2.92,-2.94l-1.05,-0.98l-0.69,-0.77l0,-1.16l-1.74,-0.59c-0.69,-1.49 -0.69,-1.49 -1.18,-2.94" fill="#7ec77d" fill-rule="nonzero" id="svg_100"/>
   <path d="m375.24,233.54l3.49,0l0.59,2.34l-2.92,0l-0.59,31.57l-0.56,0l0,-33.92zm0,0" fill="#ff6106" fill-rule="nonzero" id="svg_101"/>
   <path d="m292.48,130.64l7,0l0.59,1.18c-0.56,1.24 -0.56,1.24 -1.18,2.34l-1.15,0l-0.59,-1.18l-4.67,2.94c-0.54,-2.14 -0.56,-3.01 0,-5.28" fill="#229422" fill-rule="nonzero" id="svg_102"/>
   <path d="m643.3,331.17l1.74,1.75l-1.23,1.21c-1.21,1.21 -2.33,2.45 -3.44,3.76c-2.67,3.14 -5.1,5.38 -8.74,7.31c0.92,-2.09 2.18,-3.61 3.69,-5.31l1.33,-1.52c1.36,-1.34 2.67,-2.19 4.31,-3.12c1.23,-1.39 1.74,-2.32 2.33,-4.09" fill="#7ec77d" fill-rule="nonzero" id="svg_103"/>
   <path d="m73.93,344.02l-3.49,3.53c-1.15,0.13 -2.31,0.26 -3.46,0.39c-1.46,0.23 -2.74,0.72 -4.13,1.36c1.9,-3.81 1.9,-3.81 3.59,-4.94c2.51,-0.49 4.95,-0.41 7.49,-0.33" fill="#ff941a" fill-rule="nonzero" id="svg_104"/>
   <path d="m426.52,183.27c2.26,0.9 3.74,2.16 5.23,4.09c0.26,1.62 0.15,2.99 0,4.66c-2.46,-1.91 -4.33,-3.61 -5.82,-6.44c0.15,-1.36 0.15,-1.36 0.59,-2.32" fill="#a5d3a4" fill-rule="nonzero" id="svg_105"/>
   <path d="m66.95,332.33c0.44,0.98 0.44,0.98 0.56,2.34c-2.28,4.25 -5.9,7.78 -9.31,11.13l-1.18,1.16c-1.51,0.08 -1.51,0.08 -2.9,0c1.15,-1.16 1.15,-1.16 2.2,-1.6c1.82,-1.06 2.97,-2.58 4.2,-4.25l0.82,-1.49c0.92,-1.44 0.92,-1.44 2.69,-2.88c1.79,-1.31 1.79,-1.31 2.51,-3.12l0.38,-1.29zm0,0" fill="#ffa04e" fill-rule="nonzero" id="svg_106"/>
   <path d="m646.23,334.67c0.38,1 0.38,1 0.56,2.34c-1.26,3.04 -3.95,5.49 -6.41,7.6l-1.15,0l-0.59,1.75c-1.49,0.7 -1.49,0.7 -2.9,1.18c1.26,-2.37 2.74,-3.99 4.64,-5.85c1.08,-1.24 2.15,-2.47 3.18,-3.71c0.9,-0.98 0.9,-0.98 2.08,-1.57l0.59,-1.75zm0,0" fill="#24b223" fill-rule="nonzero" id="svg_107"/>
   <path d="m392.7,205.47l1.18,0l0,1.18l1.05,0.46c1.31,0.72 2.08,1.29 3.03,2.45c0.41,0.95 0.82,1.93 1.15,2.94l0.59,1.16c-1.31,-0.15 -1.31,-0.15 -2.9,-0.57c-1.18,-1 -1.18,-1 -2.23,-2.21l-1.08,-1.18c-0.79,-1.29 -0.79,-1.29 -0.9,-2.91l0.1,-1.31zm0,0" fill="#629e46" fill-rule="nonzero" id="svg_108"/>
   <path d="m318.71,203.72l0.59,2.34l3.49,0c-0.23,1.73 -0.51,2.81 -1.49,4.27l-0.85,0.98l-3.49,-0.57l1.74,-7.03zm-2.92,-2.34c1.38,0.13 1.38,0.13 2.33,0.59c-2.03,2.11 -4.1,4.04 -6.41,5.85l-1.15,0l-0.59,1.75c-0.95,0.82 -0.95,0.82 -2.08,1.57l-1.13,0.77l-0.87,0.59c1.69,-3.94 5.2,-7.18 8.33,-10.04l1.56,-1.08zm0,0" fill="#ff941a" fill-rule="nonzero" id="svg_109"/>
   <path d="m60.13,331.61l1.56,0.15c-1.95,2.47 -3.92,4.46 -6.41,6.41l-1.15,-0.57c0.51,-2.09 0.97,-3.35 2.46,-4.89c1.62,-0.95 1.62,-0.95 3.54,-1.11" fill="#ffc6a4" fill-rule="nonzero" id="svg_110"/>
   <path d="m653.2,334.08l1.18,0.59c0.56,1.75 0.69,3.43 0.59,5.28c-0.72,1.6 -1.59,2.94 -2.92,4.07l-1.74,0l0,-2.91l2.33,-1.16l-0.05,-1.29c0.05,-1.6 0.28,-3.01 0.62,-4.58" fill="#229422" fill-rule="nonzero" id="svg_111"/>
   <path d="m57.03,330.01c1.23,0.21 1.23,0.21 2.33,0.57l-1.74,0.59c-0.41,0.77 -0.79,1.55 -1.18,2.34l-1.41,1.65c-1.59,1.83 -2.38,3.68 -3.23,5.95l-0.59,0c-0.03,-1.83 0.1,-3.48 0.59,-5.25c1.18,-1.78 2.56,-3.22 4.08,-4.69l1.15,-1.16zm0,0" fill="#ff6106" fill-rule="nonzero" id="svg_112"/>
   <path d="m69.57,329.81c1.46,0.21 1.46,0.21 2.79,1l1,0.95l0,1.16c-1.64,0.93 -1.64,0.93 -3.51,1.75l-1.74,-0.59c-0.82,-0.93 -1.59,-1.91 -2.33,-2.91c1.31,-0.77 2.28,-1.16 3.79,-1.36" fill="#ff941a" fill-rule="nonzero" id="svg_113"/>
   <path d="m421.86,180.93l4.67,1.16l0,1.75c0.31,2.34 1.05,3.91 2.33,5.85l-1.18,0c-2.72,-2.27 -4.28,-5 -5.82,-8.19l0,-0.57zm0,0" fill="#a5d3a4" fill-rule="nonzero" id="svg_114"/>
   <path d="m406.7,355.74l1.15,0.57l0,1.18l1.18,0l1.74,5.25l-4.08,0l0,-7zm0,0" fill="#629e46" fill-rule="nonzero" id="svg_115"/>
   <path d="m650.3,345.21l1.15,0c-0.1,1.6 -0.1,1.6 -0.59,3.5c-1.31,1.42 -1.31,1.42 -2.9,2.34c-1.64,-0.15 -1.64,-0.15 -2.92,-0.59c3.15,-3.97 3.15,-3.97 5.26,-5.25" fill="#49bd47" fill-rule="nonzero" id="svg_116"/>
   <path d="m393.88,201.97c1.92,0.18 2.95,0.62 4.54,1.73c2.46,2.21 4.82,4.79 6.54,7.62c-0.18,1.36 -0.18,1.36 -0.59,2.34l-0.59,-1.75l-1.15,-0.88l-1.18,-0.88l-0.56,-1.75c-0.87,-0.75 -1.74,-1.47 -2.64,-2.19c-1.05,-0.9 -1.79,-1.96 -2.62,-3.06l-1.74,-1.18zm0,0" fill="#24b223" fill-rule="nonzero" id="svg_117"/>
   <path d="m431.75,188.53c1.13,0.98 1.77,1.78 2.46,3.09c0.51,1.78 0.54,3.27 0.46,5.1l-1.74,-1.18l0,-1.75l-1.18,0l0,-1.16l-2.33,-1.18l0,-1.75l1.77,1.75l0.56,-2.91zm0,0" fill="#a5d3a4" fill-rule="nonzero" id="svg_118"/>
   <path d="m64.03,339.95l1.74,0c-0.54,1.52 -1,2.73 -2.03,3.97l-0.9,0.7l-1.15,0l-0.44,1.13l-0.72,1.21c-1.26,0.44 -1.26,0.44 -2.33,0.59l1.15,-2.94l1.18,0l0,-1.16c0.95,-0.8 1.92,-1.57 2.9,-2.34l0.59,-1.16zm0,0" fill="#ff941a" fill-rule="nonzero" id="svg_119"/>
   <path d="m75.11,345.8c-0.15,1.34 -0.15,1.34 -0.59,2.91c-1.03,1.06 -1.03,1.06 -2.33,1.75c-1.59,0.13 -1.59,0.13 -2.9,0c0.74,-1.67 1.49,-2.91 2.9,-4.09c1.74,-0.57 1.74,-0.57 2.92,-0.57" fill="#ffa04e" fill-rule="nonzero" id="svg_120"/>
   <path d="m636.89,331.17c1.26,0.26 1.26,0.26 2.33,0.59l-0.95,0.67c-2.38,1.73 -4.23,3.37 -6.05,5.74l-1.15,0c0.03,-1.24 0.03,-1.24 0.56,-2.91c1.56,-1.62 3.26,-3.09 5.26,-4.09" fill="#a5d3a4" fill-rule="nonzero" id="svg_121"/>
   <path d="m304.71,186.18l1.18,0c0.26,1.26 0.26,1.26 0,2.94c-1.23,1.36 -2.56,2.5 -4.08,3.5l-1.18,0c0.56,-2.19 1.13,-3.45 2.64,-5.18l1.44,-1.26zm0,0" fill="#ff6106" fill-rule="nonzero" id="svg_122"/>
   <path d="m418.93,179.18c1.92,0.21 3.26,0.41 4.9,1.49l0.95,0.82l-2.33,0l1.15,2.94c-1.41,-0.23 -2.23,-0.49 -3.36,-1.42l-0.72,-0.93l0,-1.16l-1.15,0l0.56,-1.75zm0,0" fill="#a5d3a4" fill-rule="nonzero" id="svg_123"/>
   <path d="m58.21,337.02l0,1.75c-0.85,1.34 -0.85,1.34 -1.97,2.76l-1.1,1.42l-1,1.08l-1.18,0c-0.67,-2.01 -0.62,-3.71 -0.59,-5.85l1.18,2.34l0.69,-0.77c1.21,-1.13 2.51,-1.91 3.97,-2.73" fill="#ffb078" fill-rule="nonzero" id="svg_124"/>
   <path d="m636.89,334.67l0,1.75c-0.9,1.16 -1.85,2.27 -2.85,3.32l-0.82,0.93c-0.69,0.75 -1.41,1.47 -2.15,2.19l-1.18,0l0,-4.09l0.59,1.18l1.74,0l0.59,-1.78c0.95,-0.93 0.95,-0.93 2.08,-1.85l1.13,-0.93l0.87,-0.72zm0,0" fill="#a5d3a4" fill-rule="nonzero" id="svg_125"/>
   <path d="m396.22,201.97c1,0.15 1,0.15 2.33,0.59c1.31,1.13 1.31,1.13 2.33,2.34l0,1.16l1.15,0c0.9,0.95 0.9,0.95 1.87,2.19l0.95,1.24l0.69,1.26c-0.21,1.31 -0.21,1.31 -0.59,2.34l-0.87,-1.73c-2.03,-3.58 -4.97,-6.54 -7.87,-9.4" fill="#24b223" fill-rule="nonzero" id="svg_126"/>
   <path d="m71.03,329.42l0,0.59c-2.13,0.88 -3.44,1.18 -5.77,0.95l-1.82,-0.39l0.59,-1.75c2.64,-0.8 4.41,-0.26 7,0.59" fill="#ff6106" fill-rule="nonzero" id="svg_127"/>
   <path d="m426.52,183.27c1.69,0.67 2.44,1.29 3.64,2.68l1.03,1.42l-0.59,1.16c-1.03,-0.36 -1.03,-0.36 -2.33,-1.16c-1.31,-1.83 -1.31,-1.83 -2.33,-3.53l0.59,-0.57zm0,0" fill="#a5d3a4" fill-rule="nonzero" id="svg_128"/>
   <path d="m434.67,194.97l1.15,0.57c0.28,1.8 0.28,1.8 0.44,4.04l0.18,2.21l-0.03,1.93l-1.15,1.75c-0.77,-3.48 -0.64,-6.95 -0.59,-10.51" fill="#229422" fill-rule="nonzero" id="svg_129"/>
   <path d="m654.38,361.59l5.23,0c-1.59,1.8 -2.92,2.73 -5.23,3.5l0,-3.5zm0,0" fill="#ff941a" fill-rule="nonzero" id="svg_130"/>
   <path d="m302.38,151.11l1.18,0.59l-1.18,1.75l1.77,0.59l-8.18,0l0.59,-1.75l1.74,-0.59l0,1.16c1.72,-0.36 2.56,-0.72 4.08,-1.75" fill="#229422" fill-rule="nonzero" id="svg_131"/>
   <path d="m645.64,333.51l0.59,1.75l-1.1,0.44l-1.23,0.72l-0.54,1.11c-0.72,1.42 -1.51,2.14 -2.74,3.14l-1.13,0.93l-0.85,0.67c0.95,-2.27 2.51,-3.91 4.15,-5.69l0.85,-0.9c0.64,-0.72 1.33,-1.44 2,-2.16" fill="#49bd47" fill-rule="nonzero" id="svg_132"/>
   <path d="m425.93,200.81l1.74,1.16l0,1.18l1.1,0.46c1.23,0.7 1.23,0.7 2.41,2.45l-2.33,0.59c-0.51,-0.77 -0.97,-1.52 -1.46,-2.27l-0.82,-1.29c-0.64,-1.13 -0.64,-1.13 -0.64,-2.29m212.12,136.21l1.18,0.59c-2.26,2.63 -4.51,5.18 -7,7.6l0,-1.75c0.92,-1.16 1.9,-2.27 2.92,-3.32l0.85,-0.9c0.67,-0.75 1.36,-1.47 2.05,-2.21" fill="#7ec77d" fill-rule="nonzero" id="svg_133"/>
   <path d="m57.62,351.05l1.15,0.59l-0.56,1.16l1.74,1.75l-1.18,0.59c-1.18,-0.77 -2.33,-1.55 -3.49,-2.34l-0.59,-1.16c0.97,-0.23 1.95,-0.44 2.92,-0.59" fill="#ff941a" fill-rule="nonzero" id="svg_134"/>
   <path d="m649.71,344.02l1.74,0.59c-1.92,2.11 -4.08,3.63 -6.41,5.28c0.9,-2.01 2.08,-3.61 3.51,-5.28l1.15,-0.59zm-351.41,-208.11l0,1.75c-1.08,1.85 -1.08,1.85 -2.33,3.5l-1.15,0c-0.23,-1.31 -0.23,-1.31 0,-2.91c1.74,-1.36 1.74,-1.36 3.49,-2.34" fill="#229422" fill-rule="nonzero" id="svg_135"/>
   <path d="m638.64,331.76l0.59,1.16c-1.85,1.91 -3.74,3.66 -5.82,5.25c0.97,-2.29 2.41,-3.97 4.08,-5.85l1.15,-0.57zm0,0" fill="#a5d3a4" fill-rule="nonzero" id="svg_136"/>
   <path d="m280.25,149.95l1.15,0.57l-0.59,1.78l0.59,1.16l-3.49,1.16c-0.15,-1.34 -0.15,-1.34 0,-2.91c1.15,-1.06 1.15,-1.06 2.33,-1.75" fill="#229422" fill-rule="nonzero" id="svg_137"/>
   <path d="m678.28,304.29c1.15,-0.03 2.33,-0.03 3.49,0c-0.64,0.8 -0.64,0.8 -1.74,1.75c-1.87,0.7 -1.87,0.7 -3.49,1.16c1.08,-2.27 1.08,-2.27 1.74,-2.91" fill="#ff6106" fill-rule="nonzero" id="svg_138"/>
   <path d="m65.77,347.55c2.15,-0.13 2.15,-0.13 4.08,0l-1.15,1.75c-1.13,0.15 -1.13,0.15 -2.41,0.1l-2.26,-0.1c0.62,-0.88 0.62,-0.88 1.74,-1.75m8.15,-3.53l1.77,0.59l-0.59,2.34l0,-1.16l-1.67,0.9l-1.85,0.85l-1.15,-0.59c2.56,-2.34 2.56,-2.34 3.49,-2.94" fill="#ff941a" fill-rule="nonzero" id="svg_139"/>
   <path d="m646.23,334.67c0.38,1 0.38,1 0.56,2.34c-0.74,1.57 -0.74,1.57 -1.74,2.94l-1.15,0.57c0.21,-1.7 0.21,-1.7 0.56,-3.5l1.18,-0.59l0.59,-1.75zm0,0" fill="#24b223" fill-rule="nonzero" id="svg_140"/>
   <path d="m641.56,330.58l1.74,0.59c-0.08,1.29 -0.08,1.29 -0.59,2.91c-1.08,1.13 -2.23,1.98 -3.49,2.94c0.67,-1.44 1.21,-2.37 2.33,-3.5c0.1,-1.52 0.1,-1.52 0,-2.94" fill="#7ec77d" fill-rule="nonzero" id="svg_141"/>
   <path d="m286.07,135.91l1.18,0.57l-2.33,4.09l-1.18,0c-0.15,-1.34 -0.15,-1.34 0,-2.91c1.18,-1.06 1.18,-1.06 2.33,-1.75m-2.92,7l1.18,0.59l-2.33,4.09l-1.18,0c-0.13,-1.36 -0.13,-1.36 0,-2.94c1.18,-1.06 1.18,-1.06 2.33,-1.75m346.75,202.88l1.74,0.57l0,5.28c-0.87,-0.95 -0.87,-0.95 -1.74,-2.34c-0.1,-1.91 -0.1,-1.91 0,-3.5" fill="#229422" fill-rule="nonzero" id="svg_142"/>
   <path d="m68.11,335.27l0.59,0c0.15,1.31 0.15,1.31 0,2.91c-1.18,1.36 -1.18,1.36 -2.33,2.34c0.28,-2.16 0.51,-3.4 1.74,-5.25" fill="#ff6106" fill-rule="nonzero" id="svg_143"/>
   <path d="m57.03,333.51l0,1.75c-0.79,1.29 -0.79,1.29 -1.74,2.34l-1.15,0c0.46,-1.73 0.46,-1.73 1.15,-3.53l1.74,-0.57zm0,0" fill="#ffc6a4" fill-rule="nonzero" id="svg_144"/>
   <path d="m638.05,330.58l3.51,0c-0.49,1.11 -0.49,1.11 -1.18,2.34l-1.74,1.16l0.59,-2.91l-1.18,-0.59zm0,0" fill="#a5d3a4" fill-rule="nonzero" id="svg_145"/>
   <path d="m280.81,252.24l1.18,0.59l-1.18,1.18c-0.41,0.95 -0.79,1.93 -1.15,2.91l-1.15,0c0.18,-1.67 0.18,-1.67 0.56,-3.5l1.74,-1.18zm0,0" fill="#24b223" fill-rule="nonzero" id="svg_146"/>
   <path d="m286.07,131.23l5.26,0l-4.67,2.34l-0.59,-2.34zm0,0" fill="#229422" fill-rule="nonzero" id="svg_147"/>
   <path d="m74.52,347.55c-0.36,1.13 -0.36,1.13 -1.15,2.34c-1.82,0.44 -1.82,0.44 -3.51,0.57c0.59,-1.16 0.59,-1.16 2.03,-2.11c1.49,-0.8 1.49,-0.8 2.64,-0.8" fill="#ffa04e" fill-rule="nonzero" id="svg_148"/>
   <path d="m649.71,346.96l1.15,0c-0.21,1.11 -0.21,1.11 -0.56,2.34l-1.18,1.16l-1.74,-0.57c0.74,-1 1.51,-1.98 2.33,-2.94" fill="#49bd47" fill-rule="nonzero" id="svg_149"/>
   <path d="m350.76,367.43l1.15,1.16l-1.15,2.34l-1.74,-0.59l1.74,-2.91zm7,-12.28l1.15,1.16l-2.9,2.94c1.08,-2.78 1.08,-2.78 1.74,-4.09m-2.92,5.25l1.18,1.18l-2.92,2.91c1.1,-3.43 1.1,-3.43 1.74,-4.09" fill="#467f40" fill-rule="nonzero" id="svg_150"/>
   <path d="m636.89,331.17c1.26,0.26 1.26,0.26 2.33,0.59l-2.33,1.16l-1.15,-1.16l1.15,-0.59zm0,0" fill="#a5d3a4" fill-rule="nonzero" id="svg_151"/>
   <path d="m386.29,304.88l1.18,0.57l0,1.18l-2.33,1.16l1.15,-2.91zm0,0" fill="#629e46" fill-rule="nonzero" id="svg_152"/>
   <path d="m280.25,155.2l2.33,1.16l-4.08,0.59l1.74,-1.75zm12.23,-5.25l0,1.75l-1.74,0l1.74,-1.75zm2.92,-7.03l0,1.75l-1.74,0l1.74,-1.75zm0,0" fill="#229422" fill-rule="nonzero" id="svg_153"/>
   <path d="m641.56,330.58l1.74,0.59l-1.15,1.16l-0.59,-1.75zm0,0" fill="#7ec77d" fill-rule="nonzero" id="svg_154"/>
  </g>
 </g>
</svg>